<svg id="Layer_1" data-name="Layer 1" xmlns="http://www.w3.org/2000/svg" viewBox="0 0 465.47 92.11"><defs><style>.cls-1{fill:#232323;}</style></defs><path class="cls-1" d="M0,39.37c-.23-5.44,6.51-8.74,10.81-5.6,2.79.07,11.81,32.28,13,34.41l8.49-30.66a6.69,6.69,0,0,1,6.56-5,6.79,6.79,0,0,1,6.51,4.58l8.48,31L64.31,37c1.44-4.69,8.12-5.89,11.46-2.6a6.35,6.35,0,0,1,1.36,7.37L59.73,87.87C58,93.94,48.4,93.25,46.78,87.38L38.91,59.57,31.05,87.25c-1.12,4.43-6.95,6.35-10.56,3.66C17,88.58.86,43.27,0,39.37Z" transform="translate(-0.01 -0.86)"/><path class="cls-1" d="M83.31,85.58V7.66C83.06,1.74,91-1.46,95,2.83c4,1.92,1.25,33,2,36.54,11.89-14.91,40.12-7.33,37.59,14.5V85.58c.25,5.91-8,8.68-11.8,4.71-7.4-9.92,7.66-46.92-13.13-46.08Q97,44.21,97,57.27V85.58C97.26,94.18,83.05,94.19,83.31,85.58Z" transform="translate(-0.01 -0.86)"/><path class="cls-1" d="M141.61,73.54C141.25,53,164.19,54.29,178.77,54.8c1.61-9.94-10.74-12.56-18.21-9.35-5.1,3.08-14.6,8.68-15.79-1.37,3.75-14.75,31.4-15.25,41-6.69,11.11,7.22,5.31,37.07,6.66,48.07.06,8.74-13.69,8.61-13.56-.12C169.91,99.48,139.89,92.8,141.61,73.54Zm13.69,0c1,13.37,26.84,8.76,23.47-7.1C172.35,67.38,155,62.81,155.3,73.54Z" transform="translate(-0.01 -0.86)"/><path class="cls-1" d="M198.65,43.47c-4.64-5.21.88-11.27,6.94-9.92.22-5.48-2-17.35,6.75-17.15,8.72-.21,6.46,11.73,6.69,17.15,4.38-.28,11.56-.4,11.4,5.79.16,6.2-7,6.16-11.4,5.86.59,2.21-1.52,33.49,1.49,34,3.48,2.06,9.52,1.29,9.29,7.09-.78,9.76-15.36,5.38-19.27,1C202,81,206.75,54.22,205.59,45.2,203.25,45.22,200.33,45.49,198.65,43.47Z" transform="translate(-0.01 -0.86)"/><path class="cls-1" d="M234.9,36.59c-.23-4.44,6.6-5.61,7.87-1.37l14.68,42c16.73-60.19,14.87-59.33,31.4.09l14.74-42.08c.86-2.9,4.69-3.5,6.69-1.52,4.91,1.19-18.06,53.18-17.84,55.77-1.05,3.65-6.63,3.46-7.45-.24L273.29,49,261.6,89.22a3.82,3.82,0,0,1-1.47,2.12,4,4,0,0,1-6.21-1.86l-18.65-51.1A4.94,4.94,0,0,1,234.9,36.59Z" transform="translate(-0.01 -0.86)"/><path class="cls-1" d="M314.64,74.68c-.35-20.74,25.5-18,40.08-17.9,2.27-14.09-11.58-21-23.32-15.86-4,.82-7.7,9.74-12.3,5.67-4.35-9,12.78-15.32,20.63-14.77,31.77-1,21.33,36.73,23,56.42,0,5-8.07,5.11-8,0V83.66C345.67,99.09,313.53,94.79,314.64,74.68Zm8.24,0c.34,17.23,36.16,14.69,31.84-10.78C345.13,64.84,322.78,59.54,322.88,74.68Z" transform="translate(-0.01 -0.86)"/><path class="cls-1" d="M370.43,81.12c2.76-12.13,12.79,11.43,32.24,1.64,18-18.88-32.7-14.6-29.57-35.52C373,36.3,382.25,32,392.49,31.94c8.09-1.71,28.75,9.7,16.47,14.19-7.82-4.57-14.95-9.46-24.56-4.65-14.3,17.06,24.59,15.39,28.7,28C423.51,95.2,378.54,100.31,370.43,81.12Z" transform="translate(-0.01 -0.86)"/><path class="cls-1" d="M415.45,29.81C413.79,7.27,445,2.09,458.83,13.21c12.11,9.87,6.54,30.41-7.43,36-3.38,2.26-8.55,3.8-9.11,8,0,1.89,2.82,4.26,2.49,6.53-2.11,13.13-17.1,4-15.85-5.72,0-13,16.2-15.14,22.13-24.4,4.35-7.81-2.27-14.87-10.95-14.17-12.75.27-8.93,7.52-13.26,15C423,38.77,415.25,35.51,415.45,29.81Zm14.37,54.44c-1.09-10.88,16.76-10.93,15.67,0C446.58,94.86,428.73,94.81,429.82,84.25Z" transform="translate(-0.01 -0.86)"/></svg>