<svg id="svg" version="1.1" xmlns="http://www.w3.org/2000/svg" xmlns:xlink="http://www.w3.org/1999/xlink" width="400" height="63.95663956639566" viewBox="0, 0, 400,63.95663956639566"><g id="svgg"><path id="path0" d="M2.125 0.789 C 1.296 0.855,0.908 1.680,1.583 1.940 C 1.754 2.005,1.833 2.272,1.833 2.780 C 1.833 3.205,1.936 3.627,2.073 3.764 C 2.205 3.896,2.366 4.359,2.430 4.794 C 2.494 5.228,2.648 5.731,2.773 5.912 C 2.898 6.093,3.002 6.505,3.005 6.829 C 3.008 7.152,3.121 7.562,3.255 7.740 C 3.390 7.918,3.500 8.379,3.500 8.764 C 3.500 9.233,3.583 9.496,3.750 9.560 C 3.925 9.628,4.000 9.901,4.000 10.474 C 4.000 10.986,4.091 11.368,4.242 11.493 C 4.375 11.604,4.535 12.044,4.598 12.472 C 4.661 12.900,4.815 13.398,4.940 13.579 C 5.064 13.760,5.167 14.266,5.167 14.704 C 5.167 15.300,5.229 15.500,5.417 15.500 C 5.605 15.500,5.667 15.702,5.667 16.316 C 5.667 16.887,5.742 17.160,5.917 17.227 C 6.094 17.295,6.167 17.572,6.167 18.185 C 6.167 18.775,6.249 19.107,6.428 19.237 C 6.571 19.342,6.732 19.763,6.785 20.173 C 6.839 20.582,6.984 21.065,7.108 21.245 C 7.232 21.426,7.333 21.887,7.333 22.269 C 7.333 22.733,7.416 22.996,7.583 23.060 C 7.750 23.124,7.835 23.393,7.839 23.870 C 7.842 24.262,7.954 24.729,8.089 24.907 C 8.223 25.085,8.333 25.564,8.333 25.972 C 8.333 26.452,8.425 26.780,8.594 26.904 C 8.738 27.009,8.899 27.430,8.952 27.839 C 9.005 28.248,9.150 28.731,9.274 28.912 C 9.398 29.093,9.500 29.554,9.500 29.936 C 9.500 30.400,9.583 30.663,9.750 30.727 C 9.925 30.794,10.000 31.068,10.000 31.641 C 10.000 32.165,10.090 32.534,10.250 32.667 C 10.402 32.793,10.500 33.158,10.500 33.595 C 10.500 34.068,10.587 34.366,10.754 34.459 C 10.907 34.545,11.050 34.959,11.115 35.507 C 11.174 36.005,11.322 36.513,11.445 36.635 C 11.567 36.757,11.669 37.133,11.672 37.470 C 11.675 37.807,11.787 38.229,11.922 38.407 C 12.057 38.585,12.167 39.083,12.167 39.514 C 12.167 40.057,12.243 40.327,12.417 40.394 C 12.584 40.458,12.667 40.721,12.667 41.185 C 12.667 41.614,12.763 41.951,12.920 42.065 C 13.064 42.170,13.218 42.645,13.278 43.167 C 13.336 43.671,13.485 44.143,13.608 44.217 C 13.739 44.294,13.836 44.644,13.839 45.050 C 13.842 45.435,13.954 45.896,14.089 46.074 C 14.223 46.251,14.333 46.723,14.333 47.120 C 14.333 47.610,14.414 47.875,14.583 47.940 C 14.758 48.007,14.833 48.280,14.833 48.851 C 14.833 49.300,14.901 49.667,14.984 49.667 C 15.176 49.667,15.498 50.584,15.505 51.150 C 15.508 51.388,15.621 51.729,15.755 51.907 C 15.890 52.085,16.000 52.544,16.000 52.928 C 16.000 53.345,16.101 53.709,16.250 53.833 C 16.401 53.958,16.500 54.323,16.500 54.753 C 16.500 55.232,16.582 55.496,16.750 55.560 C 16.930 55.629,17.000 55.911,17.000 56.570 C 17.000 57.227,17.073 57.525,17.262 57.630 C 17.410 57.713,17.566 58.099,17.620 58.513 C 17.672 58.919,17.817 59.398,17.941 59.579 C 18.065 59.760,18.167 60.116,18.167 60.370 L 18.167 60.833 23.333 60.833 L 28.500 60.833 28.500 60.365 C 28.500 60.108,28.610 59.751,28.745 59.574 C 28.879 59.396,28.992 58.929,28.995 58.536 C 28.998 58.060,29.083 57.791,29.250 57.727 C 29.418 57.662,29.500 57.398,29.500 56.921 C 29.500 56.464,29.619 56.061,29.833 55.788 C 30.044 55.520,30.167 55.112,30.167 54.677 C 30.167 54.220,30.250 53.957,30.417 53.894 C 30.591 53.827,30.667 53.556,30.667 53.003 C 30.667 52.499,30.758 52.131,30.917 52.000 C 31.067 51.875,31.167 51.510,31.167 51.083 C 31.167 50.656,31.266 50.292,31.417 50.167 C 31.554 50.053,31.667 49.709,31.667 49.404 C 31.667 48.803,31.968 48.000,32.193 48.000 C 32.270 48.000,32.333 47.625,32.333 47.167 C 32.333 46.537,32.394 46.333,32.583 46.333 C 32.771 46.333,32.833 46.133,32.833 45.532 C 32.833 45.085,32.942 44.587,33.078 44.407 C 33.213 44.229,33.325 43.807,33.328 43.470 C 33.331 43.133,33.434 42.756,33.557 42.633 C 33.681 42.510,33.822 42.051,33.871 41.614 C 33.920 41.177,34.082 40.686,34.230 40.522 C 34.389 40.347,34.500 39.935,34.500 39.523 C 34.500 39.054,34.583 38.791,34.750 38.727 C 34.924 38.660,35.000 38.389,35.000 37.836 C 35.000 37.332,35.092 36.965,35.250 36.833 C 35.403 36.706,35.500 36.341,35.500 35.891 C 35.500 35.392,35.580 35.125,35.750 35.060 C 35.912 34.998,36.000 34.739,36.000 34.323 C 36.000 33.650,36.289 32.833,36.527 32.833 C 36.604 32.833,36.667 32.458,36.667 32.000 C 36.667 31.370,36.728 31.167,36.917 31.167 C 37.104 31.167,37.167 30.967,37.167 30.365 C 37.167 29.918,37.275 29.420,37.411 29.240 C 37.546 29.062,37.658 28.641,37.661 28.304 C 37.664 27.966,37.767 27.590,37.891 27.466 C 38.014 27.343,38.156 26.874,38.207 26.423 C 38.260 25.954,38.414 25.520,38.566 25.408 C 38.745 25.278,38.833 24.956,38.833 24.435 C 38.833 23.896,38.910 23.627,39.083 23.560 C 39.251 23.496,39.333 23.233,39.333 22.764 C 39.333 22.379,39.443 21.918,39.578 21.740 C 39.713 21.562,39.825 21.141,39.828 20.804 C 39.831 20.466,39.946 20.078,40.083 19.940 C 40.221 19.803,40.334 19.516,40.336 19.304 C 40.340 18.533,40.521 18.201,40.973 18.137 C 41.654 18.041,42.000 18.161,42.000 18.494 C 42.000 18.661,42.112 18.841,42.250 18.894 C 42.427 18.961,42.500 19.237,42.500 19.833 C 42.500 20.430,42.573 20.705,42.750 20.773 C 42.915 20.837,43.000 21.098,43.000 21.546 C 43.000 21.941,43.114 22.350,43.274 22.527 C 43.425 22.694,43.585 23.224,43.630 23.707 C 43.676 24.194,43.813 24.643,43.939 24.717 C 44.076 24.797,44.167 25.139,44.167 25.574 C 44.167 26.063,44.248 26.329,44.417 26.394 C 44.597 26.463,44.667 26.745,44.667 27.403 C 44.667 27.994,44.746 28.364,44.892 28.450 C 45.016 28.523,45.161 28.913,45.213 29.316 C 45.265 29.718,45.399 30.104,45.510 30.173 C 45.621 30.242,45.750 30.700,45.795 31.191 C 45.842 31.690,45.979 32.142,46.106 32.217 C 46.242 32.297,46.333 32.638,46.333 33.071 C 46.333 33.509,46.432 33.874,46.583 34.000 C 46.743 34.133,46.833 34.502,46.833 35.026 C 46.833 35.599,46.908 35.872,47.083 35.940 C 47.238 35.999,47.333 36.252,47.333 36.602 C 47.333 36.913,47.483 37.448,47.667 37.790 C 47.850 38.132,48.000 38.724,48.000 39.105 C 48.000 39.567,48.083 39.830,48.250 39.894 C 48.416 39.957,48.500 40.219,48.500 40.673 C 48.500 41.059,48.609 41.466,48.750 41.607 C 48.903 41.760,49.000 42.169,49.000 42.661 C 49.000 43.184,49.079 43.495,49.227 43.551 C 49.352 43.600,49.503 44.010,49.564 44.473 C 49.625 44.933,49.758 45.336,49.859 45.370 C 49.960 45.403,50.080 45.840,50.127 46.340 C 50.175 46.853,50.311 47.308,50.439 47.383 C 50.576 47.463,50.667 47.805,50.667 48.238 C 50.667 48.676,50.765 49.041,50.917 49.167 C 51.082 49.304,51.167 49.677,51.167 50.270 C 51.167 50.956,51.225 51.167,51.417 51.167 C 51.586 51.167,51.668 51.340,51.672 51.708 C 51.675 52.006,51.823 52.550,52.000 52.917 C 52.177 53.283,52.325 53.894,52.328 54.274 C 52.331 54.730,52.418 54.997,52.583 55.060 C 52.749 55.124,52.833 55.386,52.833 55.840 C 52.833 56.226,52.942 56.633,53.083 56.774 C 53.236 56.927,53.333 57.335,53.333 57.827 C 53.333 58.351,53.412 58.661,53.560 58.718 C 53.684 58.766,53.836 59.114,53.896 59.493 C 54.124 60.916,53.790 60.833,59.295 60.833 C 63.481 60.833,64.191 60.798,64.273 60.583 C 64.326 60.446,64.473 60.333,64.601 60.333 C 64.771 60.333,64.833 60.092,64.833 59.437 C 64.833 58.844,64.918 58.471,65.083 58.333 C 65.235 58.207,65.333 57.842,65.333 57.405 C 65.333 56.971,65.424 56.630,65.561 56.550 C 65.688 56.475,65.825 56.023,65.871 55.524 C 65.917 55.033,66.029 54.583,66.121 54.524 C 66.212 54.465,66.339 54.067,66.402 53.639 C 66.465 53.211,66.625 52.770,66.758 52.660 C 66.909 52.534,67.000 52.153,67.000 51.641 C 67.000 51.068,67.075 50.794,67.250 50.727 C 67.421 50.661,67.500 50.395,67.500 49.887 C 67.500 49.448,67.602 49.040,67.750 48.893 C 67.887 48.755,68.000 48.365,68.000 48.025 C 68.000 47.685,68.105 47.257,68.234 47.073 C 68.363 46.889,68.522 46.381,68.588 45.944 C 68.653 45.507,68.810 45.047,68.937 44.920 C 69.066 44.792,69.167 44.353,69.167 43.923 C 69.167 43.395,69.245 43.126,69.417 43.060 C 69.591 42.994,69.667 42.722,69.667 42.169 C 69.667 41.666,69.758 41.298,69.917 41.167 C 70.059 41.049,70.167 40.685,70.167 40.325 C 70.167 39.976,70.269 39.589,70.393 39.464 C 70.518 39.340,70.673 38.805,70.740 38.275 C 70.813 37.687,70.952 37.277,71.097 37.222 C 71.256 37.160,71.333 36.866,71.333 36.316 C 71.333 35.702,71.395 35.500,71.583 35.500 C 71.775 35.500,71.833 35.289,71.833 34.604 C 71.833 34.010,71.918 33.637,72.083 33.500 C 72.234 33.375,72.333 33.010,72.333 32.583 C 72.333 32.170,72.433 31.791,72.573 31.675 C 72.705 31.566,72.864 31.063,72.927 30.558 C 72.994 30.022,73.137 29.604,73.271 29.552 C 73.421 29.495,73.500 29.190,73.500 28.669 C 73.500 28.166,73.592 27.798,73.750 27.667 C 73.901 27.542,74.000 27.177,74.000 26.750 C 74.000 26.323,74.099 25.958,74.250 25.833 C 74.387 25.719,74.500 25.369,74.500 25.055 C 74.500 24.740,74.614 24.263,74.753 23.995 C 74.892 23.726,75.052 23.167,75.109 22.753 C 75.174 22.279,75.296 22.000,75.439 22.000 C 75.603 22.000,75.667 21.750,75.667 21.104 C 75.667 20.510,75.751 20.137,75.917 20.000 C 76.070 19.873,76.167 19.508,76.167 19.058 C 76.167 18.558,76.247 18.292,76.417 18.227 C 76.583 18.163,76.667 17.900,76.668 17.441 C 76.668 17.061,76.781 16.534,76.919 16.270 C 77.057 16.005,77.216 15.501,77.272 15.148 C 77.329 14.795,77.478 14.421,77.604 14.316 C 77.740 14.203,77.833 13.803,77.833 13.333 C 77.833 12.832,77.925 12.465,78.083 12.333 C 78.235 12.207,78.333 11.842,78.333 11.405 C 78.333 10.971,78.424 10.630,78.561 10.550 C 78.688 10.475,78.825 10.023,78.871 9.524 C 78.917 9.033,79.032 8.583,79.128 8.524 C 79.223 8.465,79.355 8.057,79.420 7.617 C 79.486 7.177,79.644 6.713,79.770 6.587 C 79.899 6.458,80.000 6.020,80.000 5.590 C 80.000 5.062,80.078 4.793,80.250 4.727 C 80.422 4.661,80.500 4.393,80.500 3.870 C 80.500 3.452,80.603 2.991,80.730 2.846 C 80.856 2.702,80.994 2.195,81.037 1.721 L 81.115 0.859 79.741 0.744 C 78.985 0.681,76.679 0.657,74.617 0.690 C 70.254 0.760,70.167 0.789,70.167 2.161 C 70.167 2.587,70.057 3.082,69.922 3.260 C 69.787 3.438,69.674 3.883,69.671 4.250 C 69.667 4.617,69.563 5.112,69.438 5.351 C 69.313 5.590,69.158 6.214,69.092 6.737 C 69.020 7.315,68.881 7.723,68.737 7.778 C 68.569 7.842,68.500 8.157,68.500 8.856 C 68.500 9.580,68.433 9.869,68.250 9.940 C 68.067 10.010,68.000 10.299,68.000 11.023 C 68.000 11.747,67.933 12.036,67.750 12.106 C 67.572 12.175,67.500 12.454,67.500 13.081 C 67.500 13.618,67.412 14.032,67.273 14.147 C 67.148 14.251,67.003 14.755,66.950 15.268 C 66.897 15.781,66.737 16.330,66.594 16.489 C 66.430 16.669,66.333 17.089,66.333 17.618 C 66.333 18.162,66.245 18.532,66.083 18.667 C 65.919 18.803,65.833 19.175,65.833 19.750 C 65.833 20.325,65.748 20.697,65.583 20.833 C 65.423 20.966,65.333 21.335,65.333 21.860 C 65.333 22.310,65.230 22.845,65.103 23.048 C 64.977 23.251,64.826 23.787,64.769 24.239 C 64.712 24.692,64.553 25.233,64.416 25.442 C 64.279 25.651,64.167 26.147,64.167 26.546 C 64.167 26.944,64.057 27.415,63.922 27.593 C 63.787 27.771,63.675 28.259,63.672 28.676 C 63.669 29.094,63.557 29.582,63.422 29.760 C 63.287 29.938,63.174 30.383,63.171 30.750 C 63.167 31.117,63.063 31.612,62.938 31.851 C 62.813 32.090,62.658 32.714,62.592 33.237 C 62.520 33.815,62.381 34.223,62.237 34.278 C 62.069 34.342,62.000 34.657,62.000 35.356 C 62.000 36.080,61.933 36.369,61.750 36.440 C 61.567 36.510,61.500 36.799,61.500 37.523 C 61.500 38.247,61.433 38.536,61.250 38.606 C 61.072 38.675,61.000 38.954,61.000 39.581 C 61.000 40.118,60.912 40.532,60.773 40.647 C 60.648 40.751,60.503 41.255,60.450 41.768 C 60.397 42.281,60.237 42.830,60.094 42.989 C 59.935 43.164,59.833 43.584,59.833 44.063 C 59.833 45.187,58.695 46.215,58.380 45.375 C 58.320 45.215,58.171 45.008,58.049 44.917 C 57.927 44.825,57.781 44.357,57.724 43.876 C 57.667 43.396,57.518 42.918,57.394 42.814 C 57.260 42.704,57.167 42.299,57.167 41.833 C 57.167 41.332,57.075 40.965,56.917 40.833 C 56.763 40.706,56.667 40.340,56.667 39.884 C 56.667 39.447,56.564 39.040,56.417 38.893 C 56.264 38.740,56.167 38.331,56.167 37.839 C 56.167 37.299,56.089 37.006,55.930 36.945 C 55.785 36.889,55.647 36.480,55.574 35.885 C 55.509 35.353,55.353 34.769,55.227 34.588 C 55.102 34.407,55.000 33.909,55.000 33.481 C 55.000 32.943,54.923 32.673,54.750 32.606 C 54.569 32.537,54.500 32.254,54.500 31.583 C 54.500 30.913,54.431 30.630,54.250 30.560 C 54.071 30.491,54.000 30.211,54.000 29.566 C 54.000 29.071,53.932 28.667,53.850 28.667 C 53.658 28.667,53.335 27.749,53.328 27.183 C 53.325 26.945,53.213 26.604,53.078 26.426 C 52.943 26.249,52.833 25.774,52.833 25.373 C 52.833 24.946,52.729 24.539,52.583 24.393 C 52.423 24.232,52.333 23.820,52.333 23.238 C 52.333 22.545,52.275 22.333,52.083 22.333 C 51.891 22.333,51.833 22.118,51.833 21.393 C 51.833 20.724,51.757 20.397,51.566 20.258 C 51.412 20.146,51.261 19.715,51.209 19.240 C 51.160 18.787,51.017 18.269,50.893 18.088 C 50.769 17.907,50.664 17.457,50.661 17.088 C 50.658 16.719,50.546 16.271,50.411 16.093 C 50.277 15.915,50.167 15.456,50.167 15.072 C 50.167 14.655,50.066 14.291,49.917 14.167 C 49.755 14.033,49.667 13.663,49.667 13.123 C 49.667 12.560,49.582 12.225,49.409 12.098 C 49.253 11.984,49.111 11.529,49.052 10.956 C 48.998 10.431,48.852 9.918,48.727 9.814 C 48.588 9.699,48.500 9.285,48.500 8.747 C 48.500 8.120,48.428 7.842,48.250 7.773 C 48.078 7.707,48.000 7.438,48.000 6.910 C 48.000 6.450,47.900 6.043,47.750 5.893 C 47.595 5.738,47.500 5.329,47.500 4.821 C 47.500 4.370,47.432 4.000,47.350 4.000 C 47.157 4.000,46.833 3.078,46.833 2.530 C 46.833 1.452,46.326 0.883,45.267 0.771 C 43.998 0.636,38.576 0.638,37.144 0.774 L 36.038 0.878 35.961 1.806 C 35.918 2.316,35.797 2.762,35.692 2.797 C 35.583 2.834,35.500 3.206,35.500 3.660 C 35.500 4.167,35.409 4.535,35.250 4.667 C 35.097 4.793,35.000 5.159,35.000 5.605 C 35.000 6.130,34.906 6.417,34.667 6.622 C 34.405 6.846,34.333 7.114,34.333 7.870 C 34.333 8.615,34.277 8.833,34.083 8.833 C 33.889 8.833,33.833 9.056,33.833 9.839 C 33.833 10.578,33.767 10.869,33.583 10.940 C 33.410 11.006,33.333 11.276,33.333 11.819 C 33.333 12.250,33.223 12.749,33.089 12.926 C 32.954 13.104,32.841 13.512,32.838 13.833 C 32.835 14.154,32.682 14.662,32.499 14.962 C 32.312 15.270,32.167 15.802,32.167 16.183 C 32.167 16.560,32.057 16.967,31.917 17.107 C 31.762 17.262,31.667 17.671,31.667 18.184 C 31.667 18.765,31.592 19.039,31.417 19.106 C 31.238 19.175,31.167 19.455,31.167 20.089 C 31.167 20.612,31.074 21.069,30.941 21.201 C 30.817 21.325,30.677 21.831,30.630 22.325 C 30.576 22.882,30.441 23.298,30.272 23.421 C 30.083 23.559,30.000 23.876,30.000 24.456 C 30.000 24.996,29.911 25.366,29.750 25.500 C 29.601 25.624,29.500 25.988,29.500 26.405 C 29.500 26.789,29.390 27.249,29.255 27.426 C 29.121 27.604,29.008 28.063,29.005 28.446 C 29.002 28.829,28.899 29.244,28.775 29.368 C 28.651 29.492,28.511 29.997,28.463 30.491 C 28.410 31.049,28.274 31.465,28.105 31.588 C 27.911 31.730,27.833 32.049,27.833 32.709 C 27.833 33.375,27.764 33.658,27.583 33.727 C 27.408 33.794,27.333 34.068,27.333 34.650 C 27.333 35.162,27.238 35.571,27.083 35.726 C 26.937 35.872,26.833 36.280,26.833 36.706 C 26.833 37.108,26.723 37.582,26.589 37.760 C 26.454 37.938,26.341 38.346,26.338 38.667 C 26.334 38.987,26.182 39.475,26.000 39.750 C 25.790 40.068,25.668 40.532,25.668 41.024 C 25.667 41.557,25.589 41.827,25.417 41.894 C 25.236 41.963,25.167 42.246,25.167 42.917 C 25.167 43.587,25.097 43.870,24.917 43.940 C 24.769 43.997,24.666 44.249,24.664 44.559 C 24.658 45.841,23.013 46.058,22.995 44.780 C 22.992 44.580,22.879 44.271,22.745 44.093 C 22.610 43.915,22.500 43.418,22.500 42.989 C 22.500 42.498,22.407 42.130,22.250 42.000 C 22.079 41.858,22.000 41.480,22.000 40.808 C 22.000 40.130,21.929 39.796,21.773 39.736 C 21.634 39.682,21.505 39.259,21.441 38.647 C 21.383 38.096,21.223 37.533,21.085 37.394 C 20.924 37.233,20.833 36.824,20.833 36.256 C 20.833 35.621,20.762 35.342,20.583 35.273 C 20.400 35.203,20.333 34.914,20.333 34.190 C 20.333 33.466,20.267 33.177,20.083 33.106 C 19.899 33.036,19.833 32.745,19.833 32.005 C 19.833 31.262,19.773 31.000,19.603 31.000 C 19.441 31.000,19.352 30.702,19.300 29.987 C 19.257 29.390,19.135 28.917,19.003 28.835 C 18.876 28.757,18.745 28.281,18.700 27.730 C 18.656 27.198,18.518 26.660,18.393 26.536 C 18.263 26.406,18.167 25.956,18.167 25.476 C 18.167 24.958,18.072 24.548,17.917 24.393 C 17.757 24.233,17.667 23.822,17.667 23.252 C 17.667 22.743,17.587 22.334,17.480 22.299 C 17.378 22.265,17.225 21.800,17.142 21.267 C 17.058 20.733,16.879 20.084,16.745 19.823 C 16.610 19.563,16.500 19.060,16.500 18.707 C 16.500 18.353,16.390 17.918,16.255 17.740 C 16.116 17.556,16.008 17.048,16.005 16.562 C 16.002 16.011,15.911 15.634,15.750 15.500 C 15.579 15.358,15.500 14.980,15.500 14.308 C 15.500 13.614,15.431 13.296,15.265 13.233 C 15.118 13.176,14.985 12.758,14.912 12.123 C 14.846 11.562,14.690 10.999,14.563 10.873 C 14.425 10.735,14.333 10.288,14.333 9.756 C 14.333 9.121,14.262 8.842,14.083 8.773 C 13.900 8.703,13.833 8.414,13.833 7.690 C 13.833 6.966,13.767 6.677,13.583 6.606 C 13.399 6.536,13.333 6.245,13.333 5.505 C 13.333 4.765,13.273 4.500,13.105 4.500 C 12.948 4.500,12.839 4.173,12.759 3.460 C 12.694 2.888,12.566 2.374,12.475 2.318 C 12.383 2.261,12.268 1.914,12.218 1.546 L 12.129 0.877 11.123 0.772 C 10.094 0.664,3.550 0.677,2.125 0.789 M86.625 0.789 L 85.833 0.852 85.833 30.842 L 85.833 60.833 90.750 60.833 L 95.667 60.833 95.667 46.532 C 95.667 34.215,95.701 32.185,95.911 31.907 C 96.046 31.729,96.158 31.227,96.161 30.792 C 96.165 30.227,96.262 29.904,96.500 29.667 C 96.683 29.483,96.833 29.146,96.833 28.917 C 96.833 28.657,96.928 28.500,97.083 28.500 C 97.231 28.500,97.333 28.347,97.334 28.125 C 97.334 27.718,98.464 26.333,98.796 26.333 C 98.908 26.333,99.001 26.240,99.003 26.125 C 99.007 25.829,99.745 25.167,100.070 25.167 C 100.221 25.167,100.387 25.054,100.440 24.917 C 100.492 24.779,100.706 24.667,100.914 24.667 C 101.122 24.667,101.386 24.554,101.500 24.417 C 101.614 24.279,101.830 24.166,101.979 24.166 C 102.128 24.165,102.475 24.037,102.750 23.881 C 103.455 23.481,108.654 23.345,109.026 23.716 C 109.160 23.850,109.589 24.014,109.980 24.080 C 110.370 24.146,110.730 24.305,110.779 24.433 C 110.829 24.562,111.051 24.667,111.273 24.667 C 111.495 24.667,111.720 24.779,111.773 24.917 C 111.826 25.054,111.955 25.168,112.059 25.170 C 112.300 25.173,113.000 25.902,113.000 26.148 C 113.000 26.250,113.112 26.333,113.250 26.333 C 113.388 26.333,113.500 26.446,113.500 26.583 C 113.500 26.721,113.612 26.833,113.750 26.833 C 113.888 26.833,114.000 26.972,114.000 27.141 C 114.000 27.310,114.150 27.584,114.333 27.750 C 114.517 27.916,114.667 28.257,114.667 28.508 C 114.667 28.760,114.779 29.007,114.917 29.060 C 115.084 29.124,115.168 29.393,115.172 29.870 C 115.175 30.262,115.287 30.729,115.422 30.907 C 115.633 31.186,115.667 33.275,115.667 46.032 L 115.667 60.833 120.583 60.833 L 125.500 60.833 125.500 44.655 C 125.500 30.496,125.469 28.445,125.250 28.226 C 125.079 28.056,125.000 27.634,125.000 26.900 C 125.000 26.112,124.935 25.798,124.758 25.730 C 124.625 25.679,124.467 25.309,124.407 24.907 C 124.346 24.506,124.193 24.091,124.065 23.985 C 123.938 23.879,123.833 23.622,123.833 23.414 C 123.833 23.206,123.721 22.992,123.583 22.940 C 123.446 22.887,123.333 22.652,123.333 22.417 C 123.333 22.182,123.221 21.946,123.083 21.894 C 122.946 21.841,122.833 21.693,122.833 21.566 C 122.833 21.438,122.772 21.333,122.696 21.333 C 122.540 21.333,121.667 20.049,121.667 19.818 C 121.667 19.735,121.554 19.667,121.417 19.667 C 121.279 19.667,121.167 19.554,121.167 19.417 C 121.167 19.279,121.054 19.167,120.917 19.167 C 120.779 19.167,120.667 19.054,120.667 18.917 C 120.667 18.779,120.598 18.667,120.515 18.667 C 120.285 18.667,119.000 17.794,119.000 17.637 C 119.000 17.562,118.897 17.500,118.770 17.500 C 118.644 17.500,118.447 17.387,118.333 17.250 C 118.219 17.113,117.956 17.000,117.747 17.000 C 117.539 17.000,117.326 16.887,117.273 16.750 C 117.218 16.606,116.969 16.500,116.684 16.500 C 116.412 16.500,116.078 16.387,115.940 16.250 C 115.803 16.112,115.441 16.000,115.137 15.999 C 114.832 15.999,114.338 15.849,114.038 15.666 C 113.279 15.204,106.753 15.152,106.421 15.605 C 106.300 15.771,105.888 15.909,105.364 15.959 C 104.892 16.005,104.421 16.145,104.316 16.271 C 104.211 16.397,103.910 16.500,103.646 16.500 C 103.331 16.500,103.167 16.586,103.167 16.750 C 103.167 16.917,103.000 17.000,102.667 17.000 C 102.333 17.000,102.167 17.083,102.167 17.250 C 102.167 17.389,102.019 17.500,101.833 17.500 C 101.648 17.500,101.500 17.611,101.500 17.750 C 101.500 17.887,101.388 18.000,101.250 18.000 C 101.112 18.000,100.850 18.150,100.667 18.333 C 100.483 18.517,100.258 18.667,100.167 18.667 C 100.075 18.667,100.000 18.779,100.000 18.917 C 100.000 19.054,99.888 19.167,99.750 19.167 C 99.612 19.167,99.500 19.271,99.500 19.399 C 99.500 19.527,99.394 19.672,99.264 19.721 C 99.036 19.809,98.620 20.445,98.401 21.042 C 98.343 21.202,98.191 21.333,98.064 21.333 C 97.928 21.333,97.833 21.507,97.833 21.755 C 97.833 21.987,97.721 22.220,97.583 22.273 C 97.446 22.326,97.333 22.506,97.333 22.673 C 97.333 23.160,96.848 23.523,96.271 23.467 L 95.750 23.417 95.707 12.149 L 95.664 0.881 94.541 0.775 C 93.394 0.667,88.057 0.676,86.625 0.789 M201.125 0.789 C 200.263 0.857,200.117 1.117,200.589 1.740 C 200.723 1.918,200.833 2.378,200.833 2.761 C 200.833 3.178,200.934 3.543,201.083 3.667 C 201.234 3.792,201.333 4.156,201.333 4.583 C 201.333 5.010,201.433 5.375,201.583 5.500 C 201.738 5.628,201.833 5.994,201.833 6.460 C 201.833 6.941,201.925 7.280,202.086 7.398 C 202.227 7.501,202.385 7.973,202.443 8.457 C 202.500 8.938,202.648 9.416,202.773 9.519 C 202.898 9.623,203.000 10.004,203.000 10.366 C 203.000 10.728,203.112 11.136,203.250 11.274 C 203.405 11.429,203.500 11.838,203.500 12.350 C 203.500 12.932,203.574 13.206,203.750 13.273 C 203.921 13.339,204.000 13.607,204.000 14.124 C 204.000 14.608,204.091 14.947,204.253 15.065 C 204.393 15.168,204.552 15.639,204.609 16.124 C 204.666 16.604,204.815 17.082,204.940 17.186 C 205.065 17.289,205.167 17.670,205.167 18.032 C 205.167 18.395,205.279 18.803,205.417 18.940 C 205.570 19.094,205.667 19.502,205.667 19.994 C 205.667 20.555,205.742 20.827,205.917 20.894 C 206.084 20.958,206.167 21.221,206.167 21.690 C 206.167 22.078,206.278 22.513,206.416 22.666 C 206.553 22.817,206.716 23.310,206.777 23.761 C 206.839 24.211,206.989 24.680,207.111 24.802 C 207.233 24.924,207.333 25.347,207.333 25.741 C 207.333 26.176,207.432 26.541,207.583 26.667 C 207.742 26.798,207.833 27.166,207.833 27.669 C 207.833 28.222,207.909 28.494,208.083 28.560 C 208.257 28.627,208.333 28.897,208.333 29.440 C 208.333 29.921,208.435 30.336,208.597 30.516 C 208.743 30.676,208.904 31.132,208.956 31.529 C 209.008 31.925,209.124 32.298,209.214 32.357 C 209.305 32.416,209.416 32.866,209.462 33.357 C 209.509 33.857,209.645 34.309,209.773 34.383 C 209.909 34.463,210.000 34.805,210.000 35.238 C 210.000 35.676,210.098 36.041,210.250 36.167 C 210.416 36.304,210.500 36.677,210.500 37.270 C 210.500 37.939,210.561 38.167,210.740 38.167 C 210.898 38.167,211.019 38.435,211.096 38.958 C 211.160 39.394,211.315 39.898,211.440 40.079 C 211.564 40.260,211.667 40.758,211.667 41.186 C 211.667 41.724,211.744 41.994,211.917 42.060 C 212.084 42.124,212.168 42.393,212.172 42.870 C 212.175 43.262,212.287 43.729,212.422 43.907 C 212.557 44.085,212.667 44.550,212.667 44.940 C 212.667 45.403,212.755 45.700,212.921 45.792 C 213.072 45.877,213.216 46.285,213.277 46.799 C 213.333 47.275,213.482 47.749,213.606 47.852 C 213.733 47.957,213.833 48.355,213.833 48.750 C 213.833 49.177,213.933 49.542,214.083 49.667 C 214.242 49.798,214.333 50.166,214.333 50.669 C 214.333 51.222,214.409 51.494,214.583 51.560 C 214.756 51.627,214.833 51.896,214.833 52.435 C 214.833 52.938,214.923 53.279,215.086 53.398 C 215.230 53.504,215.385 53.978,215.445 54.500 C 215.503 55.004,215.651 55.477,215.775 55.550 C 215.909 55.629,216.000 55.976,216.000 56.405 C 216.000 56.842,216.098 57.207,216.250 57.333 C 216.410 57.466,216.500 57.835,216.500 58.359 C 216.500 58.932,216.575 59.206,216.750 59.273 C 216.920 59.338,217.000 59.604,217.000 60.101 L 217.000 60.833 222.167 60.833 C 227.231 60.833,227.333 60.827,227.333 60.498 C 227.333 60.314,227.483 60.035,227.667 59.878 C 227.911 59.668,228.000 59.386,228.000 58.817 C 228.000 58.330,228.093 57.963,228.250 57.833 C 228.403 57.706,228.500 57.341,228.500 56.891 C 228.500 56.392,228.580 56.125,228.750 56.060 C 228.924 55.993,229.000 55.721,229.000 55.161 C 229.000 54.669,229.097 54.260,229.250 54.107 C 229.387 53.970,229.500 53.589,229.500 53.262 C 229.500 52.889,229.624 52.542,229.833 52.333 C 230.078 52.088,230.167 51.778,230.167 51.161 C 230.167 50.570,230.240 50.295,230.417 50.227 C 230.592 50.160,230.667 49.887,230.667 49.316 C 230.667 48.702,230.729 48.500,230.917 48.500 C 231.104 48.500,231.167 48.300,231.167 47.699 C 231.167 47.252,231.275 46.754,231.411 46.574 C 231.546 46.396,231.659 46.063,231.664 45.833 C 231.676 45.149,231.858 44.667,232.103 44.667 C 232.270 44.667,232.333 44.422,232.333 43.770 C 232.333 43.177,232.418 42.804,232.583 42.667 C 232.736 42.540,232.833 42.174,232.833 41.724 C 232.833 41.225,232.913 40.959,233.083 40.894 C 233.251 40.829,233.333 40.566,233.333 40.097 C 233.333 39.712,233.443 39.251,233.578 39.074 C 233.713 38.896,233.825 38.468,233.828 38.123 C 233.832 37.708,233.946 37.401,234.167 37.211 C 234.412 37.001,234.500 36.720,234.500 36.142 C 234.500 35.667,234.599 35.259,234.750 35.107 C 234.891 34.966,235.000 34.559,235.000 34.173 C 235.000 33.719,235.084 33.457,235.250 33.394 C 235.423 33.327,235.500 33.057,235.500 32.514 C 235.500 32.083,235.610 31.585,235.745 31.407 C 235.879 31.229,235.992 30.840,235.995 30.542 C 235.998 30.228,236.140 29.860,236.333 29.667 C 236.576 29.424,236.667 29.111,236.667 28.520 C 236.667 28.001,236.757 27.633,236.917 27.500 C 237.070 27.373,237.167 27.008,237.167 26.558 C 237.167 26.058,237.247 25.792,237.417 25.727 C 237.584 25.663,237.667 25.399,237.667 24.931 C 237.667 24.546,237.777 24.085,237.911 23.907 C 238.046 23.729,238.159 23.396,238.164 23.167 C 238.176 22.482,238.358 22.000,238.603 22.000 C 238.770 22.000,238.833 21.756,238.833 21.104 C 238.833 20.525,238.919 20.137,239.074 20.007 C 239.207 19.897,239.338 19.495,239.366 19.113 C 239.430 18.237,240.833 17.508,240.833 18.351 C 240.833 18.433,240.983 18.650,241.167 18.833 C 241.360 19.026,241.502 19.395,241.505 19.708 C 241.508 20.006,241.621 20.396,241.755 20.574 C 241.892 20.754,242.000 21.252,242.000 21.699 C 242.000 22.300,242.062 22.500,242.250 22.500 C 242.438 22.500,242.500 22.702,242.500 23.316 C 242.500 23.852,242.578 24.161,242.728 24.219 C 242.869 24.272,242.986 24.658,243.032 25.219 C 243.077 25.765,243.220 26.244,243.387 26.411 C 243.552 26.576,243.667 26.954,243.667 27.331 C 243.667 27.684,243.751 28.000,243.854 28.035 C 243.958 28.069,244.080 28.507,244.127 29.007 C 244.175 29.519,244.311 29.975,244.439 30.050 C 244.576 30.130,244.667 30.471,244.667 30.905 C 244.667 31.310,244.766 31.708,244.894 31.814 C 245.018 31.918,245.165 32.379,245.220 32.839 C 245.274 33.299,245.435 33.792,245.576 33.933 C 245.718 34.075,245.836 34.466,245.839 34.804 C 245.842 35.141,245.954 35.562,246.089 35.740 C 246.225 35.920,246.333 36.418,246.333 36.865 C 246.333 37.467,246.396 37.667,246.583 37.667 C 246.771 37.667,246.833 37.868,246.833 38.482 C 246.833 39.053,246.908 39.326,247.083 39.394 C 247.245 39.456,247.333 39.714,247.333 40.122 C 247.333 40.470,247.483 41.035,247.667 41.377 C 247.850 41.719,248.000 42.252,248.000 42.562 C 248.000 42.872,248.112 43.219,248.250 43.333 C 248.408 43.465,248.500 43.832,248.500 44.336 C 248.500 44.889,248.576 45.160,248.750 45.227 C 248.920 45.292,249.000 45.558,249.000 46.058 C 249.000 46.477,249.098 46.874,249.229 46.983 C 249.355 47.087,249.509 47.555,249.571 48.023 C 249.633 48.491,249.792 48.983,249.925 49.116 C 250.058 49.248,250.169 49.633,250.172 49.970 C 250.175 50.307,250.287 50.729,250.422 50.907 C 250.558 51.087,250.667 51.585,250.667 52.032 C 250.667 52.633,250.729 52.833,250.917 52.833 C 251.102 52.833,251.167 53.029,251.167 53.595 C 251.167 54.021,251.268 54.459,251.397 54.587 C 251.523 54.713,251.680 55.174,251.745 55.611 C 251.811 56.047,251.970 56.555,252.099 56.739 C 252.228 56.924,252.333 57.348,252.333 57.683 C 252.333 58.022,252.445 58.385,252.583 58.500 C 252.736 58.627,252.833 58.992,252.833 59.437 C 252.833 60.845,252.787 60.833,258.308 60.833 C 263.697 60.833,263.667 60.840,263.667 59.632 C 263.667 59.307,263.772 58.953,263.901 58.846 C 264.030 58.739,264.188 58.205,264.251 57.659 C 264.330 56.974,264.438 56.667,264.600 56.667 C 264.768 56.667,264.833 56.440,264.833 55.854 C 264.833 55.334,264.924 54.966,265.083 54.833 C 265.235 54.708,265.333 54.343,265.333 53.908 C 265.333 53.492,265.439 53.085,265.583 52.940 C 265.721 52.803,265.833 52.420,265.833 52.089 C 265.833 51.759,265.938 51.322,266.065 51.119 C 266.193 50.916,266.348 50.389,266.410 49.949 C 266.474 49.493,266.626 49.108,266.762 49.056 C 266.922 48.994,267.000 48.705,267.000 48.169 C 267.000 47.666,267.092 47.298,267.250 47.167 C 267.401 47.042,267.500 46.677,267.500 46.250 C 267.500 45.823,267.599 45.458,267.750 45.333 C 267.899 45.210,268.000 44.846,268.000 44.433 C 268.000 44.052,268.105 43.590,268.234 43.406 C 268.363 43.222,268.521 42.723,268.585 42.297 C 268.649 41.871,268.806 41.482,268.934 41.433 C 269.090 41.373,269.167 41.071,269.167 40.517 C 269.167 40.005,269.262 39.595,269.417 39.440 C 269.558 39.299,269.667 38.892,269.667 38.507 C 269.667 38.053,269.751 37.791,269.917 37.727 C 270.090 37.661,270.167 37.391,270.167 36.853 C 270.167 36.424,270.272 35.924,270.401 35.739 C 270.530 35.555,270.688 35.056,270.752 34.630 C 270.816 34.204,270.973 33.816,271.101 33.766 C 271.260 33.705,271.333 33.393,271.333 32.773 C 271.333 32.123,271.404 31.842,271.583 31.773 C 271.750 31.709,271.835 31.440,271.839 30.964 C 271.842 30.571,271.954 30.104,272.089 29.926 C 272.223 29.749,272.333 29.334,272.333 29.005 C 272.333 28.676,272.439 28.257,272.568 28.073 C 272.697 27.889,272.856 27.381,272.921 26.944 C 272.987 26.507,273.144 26.047,273.270 25.920 C 273.398 25.792,273.500 25.354,273.500 24.929 C 273.500 24.362,273.564 24.167,273.750 24.167 C 273.938 24.167,274.000 23.967,274.000 23.365 C 274.000 22.918,274.108 22.420,274.245 22.240 C 274.379 22.062,274.492 21.641,274.495 21.304 C 274.498 20.966,274.606 20.585,274.735 20.456 C 274.864 20.327,275.023 19.791,275.089 19.264 C 275.160 18.698,275.302 18.271,275.438 18.219 C 275.584 18.163,275.667 17.865,275.667 17.394 C 275.667 16.892,275.747 16.626,275.917 16.560 C 276.090 16.494,276.167 16.224,276.167 15.681 C 276.167 15.250,276.277 14.751,276.411 14.574 C 276.546 14.396,276.658 13.985,276.661 13.662 C 276.664 13.339,276.775 12.920,276.907 12.731 C 277.040 12.541,277.199 12.000,277.262 11.527 C 277.337 10.965,277.455 10.667,277.605 10.667 C 277.767 10.667,277.833 10.431,277.833 9.854 C 277.833 9.334,277.924 8.966,278.083 8.833 C 278.243 8.700,278.333 8.332,278.333 7.808 C 278.333 7.234,278.408 6.961,278.583 6.894 C 278.750 6.830,278.833 6.567,278.833 6.103 C 278.833 5.720,278.939 5.257,279.068 5.073 C 279.197 4.889,279.355 4.383,279.420 3.950 C 279.485 3.516,279.633 3.107,279.748 3.039 C 279.867 2.970,279.990 2.468,280.031 1.887 L 280.103 0.858 278.734 0.744 C 277.982 0.681,275.690 0.657,273.641 0.690 C 269.271 0.760,269.301 0.749,269.103 2.429 C 269.034 3.017,268.890 3.465,268.744 3.547 C 268.577 3.640,268.500 3.965,268.500 4.571 C 268.500 5.157,268.415 5.530,268.250 5.667 C 268.086 5.803,268.000 6.175,268.000 6.750 C 268.000 7.325,267.914 7.697,267.750 7.833 C 267.590 7.966,267.500 8.335,267.500 8.860 C 267.500 9.310,267.396 9.845,267.270 10.048 C 267.143 10.251,266.993 10.787,266.936 11.239 C 266.878 11.692,266.719 12.233,266.582 12.442 C 266.445 12.651,266.333 13.147,266.333 13.546 C 266.333 13.944,266.223 14.415,266.089 14.593 C 265.954 14.771,265.842 15.259,265.839 15.676 C 265.836 16.094,265.723 16.582,265.589 16.760 C 265.454 16.938,265.342 17.423,265.339 17.838 C 265.336 18.253,265.231 18.740,265.106 18.921 C 264.981 19.102,264.825 19.686,264.759 20.219 C 264.686 20.813,264.549 21.222,264.403 21.278 C 264.236 21.342,264.167 21.657,264.167 22.356 C 264.167 23.080,264.100 23.369,263.917 23.440 C 263.733 23.510,263.667 23.799,263.667 24.523 C 263.667 25.247,263.600 25.536,263.417 25.606 C 263.238 25.675,263.167 25.955,263.167 26.589 C 263.167 27.107,263.074 27.569,262.944 27.699 C 262.822 27.821,262.669 28.369,262.605 28.916 C 262.535 29.514,262.391 29.964,262.244 30.047 C 262.077 30.140,262.000 30.465,262.000 31.071 C 262.000 31.657,261.915 32.030,261.750 32.167 C 261.587 32.302,261.500 32.674,261.500 33.239 C 261.500 33.741,261.397 34.239,261.255 34.426 C 261.121 34.604,261.008 35.090,261.005 35.505 C 261.002 35.920,260.898 36.407,260.773 36.588 C 260.647 36.769,260.493 37.343,260.429 37.863 C 260.365 38.384,260.205 38.899,260.073 39.009 C 259.920 39.135,259.833 39.525,259.833 40.083 C 259.833 40.659,259.748 41.030,259.583 41.167 C 259.426 41.297,259.333 41.664,259.333 42.155 C 259.333 42.585,259.223 43.082,259.089 43.260 C 258.954 43.438,258.842 43.868,258.839 44.216 C 258.829 45.385,257.677 46.086,257.232 45.193 C 257.126 44.980,256.955 44.722,256.853 44.619 C 256.750 44.517,256.667 44.120,256.667 43.737 C 256.667 43.322,256.566 42.957,256.417 42.833 C 256.255 42.699,256.167 42.330,256.167 41.790 C 256.167 41.227,256.082 40.892,255.909 40.765 C 255.753 40.651,255.611 40.196,255.552 39.622 C 255.498 39.098,255.352 38.584,255.227 38.481 C 255.088 38.366,255.000 37.952,255.000 37.414 C 255.000 36.787,254.928 36.508,254.750 36.440 C 254.575 36.372,254.500 36.099,254.500 35.526 C 254.500 35.002,254.410 34.633,254.250 34.500 C 254.096 34.372,254.000 34.007,254.000 33.551 C 254.000 33.128,253.897 32.706,253.760 32.569 C 253.628 32.437,253.474 31.974,253.417 31.540 C 253.361 31.105,253.206 30.551,253.074 30.308 C 252.942 30.064,252.833 29.529,252.833 29.117 C 252.833 28.606,252.754 28.339,252.583 28.273 C 252.399 28.202,252.333 27.912,252.333 27.172 C 252.333 26.389,252.278 26.167,252.083 26.167 C 251.893 26.167,251.833 25.960,251.833 25.305 C 251.833 24.763,251.738 24.338,251.577 24.159 C 251.435 24.003,251.258 23.487,251.183 23.011 C 251.108 22.536,250.961 22.061,250.857 21.957 C 250.752 21.852,250.667 21.439,250.667 21.038 C 250.667 20.613,250.563 20.205,250.417 20.060 C 250.257 19.900,250.167 19.489,250.167 18.923 C 250.167 18.288,250.096 18.008,249.917 17.940 C 249.737 17.871,249.667 17.589,249.667 16.930 C 249.667 16.253,249.595 15.977,249.390 15.862 C 249.202 15.757,249.090 15.410,249.037 14.774 C 248.994 14.260,248.856 13.755,248.730 13.650 C 248.603 13.545,248.498 13.150,248.495 12.771 C 248.492 12.393,248.379 11.938,248.245 11.760 C 248.110 11.582,248.000 11.108,248.000 10.706 C 248.000 10.280,247.896 9.872,247.750 9.726 C 247.601 9.577,247.500 9.169,247.500 8.715 C 247.500 8.220,247.410 7.887,247.242 7.765 C 247.087 7.651,246.945 7.196,246.885 6.622 C 246.831 6.098,246.685 5.584,246.560 5.481 C 246.421 5.366,246.333 4.952,246.333 4.414 C 246.333 3.787,246.262 3.508,246.083 3.440 C 245.908 3.372,245.833 3.099,245.833 2.526 C 245.833 2.002,245.743 1.633,245.583 1.500 C 245.446 1.386,245.333 1.200,245.333 1.087 C 245.333 0.700,239.153 0.489,236.144 0.774 L 235.038 0.878 234.961 1.797 C 234.912 2.391,234.788 2.788,234.609 2.918 C 234.416 3.060,234.333 3.370,234.333 3.956 C 234.333 4.496,234.245 4.866,234.083 5.000 C 233.925 5.132,233.833 5.500,233.833 6.009 C 233.833 6.498,233.736 6.907,233.583 7.060 C 233.437 7.206,233.333 7.613,233.333 8.040 C 233.333 8.441,233.223 8.915,233.089 9.093 C 232.954 9.271,232.842 9.688,232.839 10.019 C 232.836 10.362,232.690 10.804,232.500 11.045 C 232.266 11.343,232.167 11.722,232.167 12.318 C 232.167 12.961,232.106 13.167,231.917 13.167 C 231.722 13.167,231.667 13.389,231.667 14.172 C 231.667 14.912,231.601 15.202,231.417 15.273 C 231.243 15.340,231.167 15.610,231.167 16.153 C 231.167 16.584,231.057 17.082,230.922 17.260 C 230.787 17.438,230.675 17.861,230.672 18.200 C 230.666 18.857,230.372 19.667,230.140 19.667 C 230.063 19.667,230.000 20.036,230.000 20.488 C 230.000 20.996,229.905 21.405,229.750 21.560 C 229.603 21.707,229.500 22.114,229.500 22.551 C 229.500 23.007,229.404 23.372,229.250 23.500 C 229.091 23.632,229.000 24.000,229.000 24.509 C 229.000 24.959,228.901 25.408,228.775 25.535 C 228.651 25.659,228.511 26.164,228.463 26.658 C 228.410 27.216,228.274 27.631,228.105 27.755 C 227.916 27.893,227.833 28.209,227.833 28.790 C 227.833 29.330,227.745 29.699,227.583 29.833 C 227.425 29.965,227.333 30.333,227.333 30.842 C 227.333 31.332,227.236 31.740,227.083 31.893 C 226.936 32.040,226.833 32.447,226.833 32.884 C 226.833 33.340,226.737 33.706,226.583 33.833 C 226.431 33.960,226.333 34.325,226.333 34.770 C 226.333 35.278,226.232 35.602,226.000 35.833 C 225.749 36.084,225.667 36.389,225.667 37.066 C 225.667 37.711,225.596 37.991,225.417 38.060 C 225.236 38.130,225.167 38.413,225.167 39.083 C 225.167 39.754,225.097 40.037,224.917 40.106 C 224.744 40.173,224.667 40.443,224.667 40.981 C 224.667 41.409,224.565 41.907,224.440 42.088 C 224.316 42.269,224.175 42.776,224.127 43.215 C 224.079 43.654,223.925 44.142,223.785 44.298 C 223.645 44.455,223.505 44.763,223.474 44.983 C 223.325 46.027,222.000 45.763,222.000 44.689 C 222.000 44.262,221.913 44.002,221.750 43.940 C 221.573 43.872,221.500 43.595,221.500 42.990 C 221.500 42.388,221.401 42.011,221.167 41.712 C 220.945 41.431,220.832 41.030,220.828 40.519 C 220.825 40.096,220.713 39.604,220.578 39.426 C 220.443 39.249,220.333 38.751,220.333 38.322 C 220.333 37.831,220.240 37.464,220.083 37.333 C 219.923 37.200,219.833 36.831,219.833 36.301 C 219.833 35.790,219.738 35.381,219.583 35.226 C 219.446 35.089,219.332 34.700,219.330 34.363 C 219.328 34.026,219.178 33.423,218.996 33.023 C 218.815 32.624,218.667 31.977,218.667 31.586 C 218.667 31.157,218.567 30.792,218.417 30.667 C 218.252 30.530,218.167 30.159,218.167 29.583 C 218.167 29.008,218.081 28.636,217.917 28.500 C 217.746 28.358,217.667 27.980,217.667 27.308 C 217.667 26.614,217.597 26.296,217.432 26.233 C 217.285 26.176,217.152 25.758,217.078 25.123 C 217.013 24.562,216.856 23.999,216.730 23.873 C 216.592 23.735,216.500 23.288,216.500 22.756 C 216.500 22.121,216.429 21.842,216.250 21.773 C 216.067 21.703,216.000 21.414,216.000 20.690 C 216.000 19.966,215.933 19.677,215.750 19.606 C 215.567 19.536,215.500 19.247,215.500 18.523 C 215.500 17.844,215.429 17.508,215.273 17.449 C 215.138 17.397,215.000 16.968,214.932 16.389 C 214.870 15.854,214.709 15.271,214.576 15.093 C 214.442 14.915,214.333 14.441,214.333 14.040 C 214.333 13.613,214.229 13.206,214.083 13.060 C 213.924 12.900,213.833 12.489,213.833 11.925 C 213.833 11.342,213.748 10.970,213.583 10.833 C 213.423 10.700,213.333 10.331,213.333 9.801 C 213.333 9.327,213.237 8.880,213.106 8.749 C 212.981 8.624,212.827 8.130,212.764 7.652 C 212.700 7.173,212.540 6.572,212.407 6.316 C 212.275 6.059,212.167 5.518,212.167 5.112 C 212.167 4.659,212.070 4.294,211.917 4.167 C 211.752 4.030,211.667 3.659,211.667 3.083 C 211.667 2.508,211.581 2.136,211.417 2.000 C 211.279 1.886,211.167 1.588,211.167 1.337 C 211.167 0.896,211.130 0.878,210.042 0.775 C 208.892 0.667,202.553 0.677,201.125 0.789 M179.958 5.115 C 179.688 5.185,179.667 5.584,179.667 10.494 C 179.667 15.177,179.636 15.810,179.403 15.899 C 179.258 15.954,177.796 16.000,176.153 16.000 L 173.167 16.000 173.167 19.478 L 173.167 22.956 173.792 23.060 C 174.135 23.117,175.467 23.166,176.750 23.170 C 180.065 23.180,179.666 21.312,179.673 36.852 C 179.678 48.008,179.716 50.149,179.917 50.500 C 180.060 50.751,180.157 51.391,180.161 52.107 C 180.165 52.951,180.232 53.323,180.393 53.384 C 180.517 53.432,180.662 53.790,180.714 54.181 C 180.766 54.571,180.927 54.956,181.071 55.037 C 181.215 55.117,181.333 55.332,181.333 55.514 C 181.333 55.695,181.446 55.887,181.583 55.940 C 181.721 55.992,181.833 56.142,181.833 56.273 C 181.833 56.404,181.946 56.554,182.083 56.606 C 182.221 56.659,182.333 56.773,182.333 56.858 C 182.333 56.944,182.720 57.367,183.192 57.799 C 183.664 58.230,184.208 58.742,184.400 58.935 C 184.593 59.129,184.919 59.340,185.125 59.405 C 185.331 59.469,185.500 59.592,185.500 59.678 C 185.500 59.763,185.645 59.833,185.821 59.833 C 185.998 59.833,186.255 59.946,186.393 60.083 C 186.530 60.221,186.827 60.333,187.051 60.333 C 187.276 60.333,187.545 60.437,187.650 60.563 C 187.755 60.689,188.266 60.828,188.787 60.871 C 189.307 60.914,189.762 61.036,189.797 61.141 C 189.899 61.447,196.456 61.394,197.000 61.083 C 197.229 60.952,197.804 60.842,198.278 60.839 C 198.810 60.836,199.168 60.754,199.216 60.625 C 199.362 60.230,199.127 58.082,198.897 57.714 C 198.768 57.508,198.667 56.909,198.667 56.357 C 198.667 55.633,198.600 55.343,198.417 55.273 C 198.230 55.202,198.167 54.904,198.167 54.102 L 198.167 53.027 197.552 53.197 C 196.506 53.485,193.010 53.309,192.813 52.958 C 192.715 52.783,192.453 52.667,192.158 52.667 C 191.832 52.667,191.667 52.582,191.667 52.417 C 191.667 52.279,191.596 52.167,191.509 52.167 C 191.247 52.167,190.500 51.397,190.500 51.126 C 190.500 50.988,190.387 50.781,190.250 50.667 C 189.915 50.389,189.866 23.700,190.200 23.367 C 190.344 23.223,191.460 23.166,194.158 23.164 C 199.254 23.161,198.667 23.642,198.667 19.481 L 198.667 16.000 194.597 16.000 C 192.359 16.000,190.409 15.954,190.264 15.899 C 190.031 15.810,190.000 15.177,190.000 10.502 L 190.000 5.206 189.625 5.105 C 189.196 4.990,180.402 4.999,179.958 5.115 M380.000 12.917 C 379.857 13.088,379.477 13.167,378.784 13.167 C 378.110 13.167,377.682 13.252,377.492 13.424 C 377.336 13.565,376.917 13.727,376.562 13.782 C 376.207 13.838,375.857 13.985,375.783 14.109 C 375.710 14.232,375.474 14.333,375.260 14.333 C 375.045 14.333,374.826 14.446,374.773 14.583 C 374.720 14.721,374.525 14.833,374.339 14.833 C 374.152 14.833,374.000 14.907,374.000 14.997 C 374.000 15.087,373.813 15.207,373.583 15.265 C 373.354 15.322,373.167 15.474,373.167 15.601 C 373.167 15.729,373.110 15.834,373.042 15.835 C 372.841 15.839,371.500 17.136,371.500 17.327 C 371.500 17.422,371.387 17.500,371.250 17.500 C 371.113 17.500,371.000 17.609,371.000 17.742 C 371.000 17.875,370.905 18.043,370.788 18.117 C 370.672 18.190,370.486 18.456,370.375 18.708 C 370.264 18.960,370.097 19.167,370.004 19.167 C 369.910 19.167,369.833 19.247,369.833 19.345 C 369.833 19.443,369.721 19.636,369.583 19.774 C 369.446 19.911,369.333 20.201,369.333 20.417 C 369.333 20.633,369.221 20.922,369.083 21.060 C 368.946 21.197,368.833 21.534,368.833 21.808 C 368.833 22.081,368.740 22.343,368.625 22.390 C 368.510 22.436,368.735 22.480,369.125 22.487 C 369.638 22.496,369.833 22.569,369.833 22.750 C 369.833 22.938,370.033 23.000,370.635 23.000 C 371.082 23.000,371.580 23.108,371.760 23.245 C 371.938 23.379,372.350 23.492,372.676 23.495 C 373.003 23.498,373.415 23.609,373.593 23.743 C 373.771 23.876,374.348 24.036,374.875 24.097 C 375.521 24.173,375.833 24.284,375.833 24.438 C 375.833 24.597,375.935 24.565,376.167 24.333 C 376.350 24.150,376.500 23.859,376.500 23.687 C 376.500 23.515,376.613 23.281,376.750 23.167 C 376.887 23.053,377.000 22.856,377.000 22.730 C 377.000 22.603,377.113 22.500,377.250 22.500 C 377.387 22.500,377.500 22.400,377.500 22.277 C 377.500 22.047,378.757 20.833,378.996 20.833 C 379.070 20.833,379.174 20.721,379.227 20.583 C 379.280 20.446,379.509 20.333,379.736 20.333 C 379.964 20.333,380.210 20.232,380.283 20.107 C 380.570 19.620,386.167 19.621,386.167 20.108 C 386.167 20.245,386.354 20.333,386.646 20.333 C 386.910 20.333,387.219 20.446,387.333 20.583 C 387.447 20.721,387.663 20.835,387.812 20.836 C 388.115 20.839,388.833 21.528,388.833 21.815 C 388.833 21.917,388.904 22.000,388.991 22.000 C 389.253 22.000,390.000 22.770,390.000 23.040 C 390.000 23.179,390.113 23.386,390.250 23.500 C 390.387 23.614,390.500 23.891,390.500 24.116 C 390.500 24.340,390.613 24.636,390.750 24.774 C 390.937 24.961,391.000 25.421,391.000 26.600 C 391.000 27.848,390.948 28.197,390.750 28.273 C 390.580 28.338,390.500 28.605,390.500 29.106 C 390.500 29.587,390.418 29.875,390.265 29.934 C 390.136 29.984,389.983 30.211,389.926 30.440 C 389.868 30.669,389.599 31.074,389.327 31.339 C 389.056 31.605,388.833 31.900,388.833 31.994 C 388.833 32.089,388.721 32.167,388.583 32.167 C 388.446 32.167,388.333 32.279,388.333 32.417 C 388.333 32.554,388.218 32.667,388.078 32.667 C 387.938 32.667,387.781 32.775,387.731 32.906 C 387.680 33.038,387.426 33.193,387.167 33.250 C 386.907 33.307,386.653 33.462,386.602 33.594 C 386.552 33.725,386.318 33.833,386.083 33.833 C 385.848 33.833,385.613 33.946,385.560 34.083 C 385.507 34.222,385.259 34.333,385.003 34.333 C 384.749 34.333,384.447 34.446,384.333 34.583 C 384.216 34.725,383.853 34.833,383.497 34.833 C 383.112 34.833,382.834 34.924,382.779 35.067 C 382.730 35.195,382.389 35.351,382.021 35.413 C 381.653 35.475,381.264 35.633,381.156 35.763 C 381.048 35.893,380.813 36.000,380.634 36.000 C 380.456 36.000,380.197 36.112,380.060 36.250 C 379.922 36.388,379.663 36.500,379.483 36.500 C 379.303 36.500,379.113 36.613,379.060 36.750 C 379.008 36.888,378.857 37.000,378.725 37.000 C 378.437 37.000,378.238 37.159,377.115 38.282 C 375.981 39.415,375.833 39.603,375.833 39.910 C 375.833 40.051,375.767 40.167,375.686 40.167 C 375.605 40.167,375.296 40.654,375.000 41.250 C 374.704 41.846,374.395 42.333,374.314 42.333 C 374.233 42.333,374.167 42.561,374.167 42.839 C 374.167 43.134,374.063 43.384,373.917 43.440 C 373.764 43.498,373.667 43.751,373.667 44.089 C 373.667 44.394,373.554 44.755,373.417 44.893 C 373.278 45.032,373.167 45.439,373.167 45.812 C 373.167 46.179,373.089 46.528,372.994 46.587 C 372.666 46.790,373.615 47.333,374.298 47.333 C 374.661 47.333,375.045 47.436,375.149 47.562 C 375.254 47.688,375.726 47.829,376.198 47.874 C 376.721 47.924,377.133 48.062,377.255 48.228 C 377.389 48.412,377.705 48.500,378.232 48.500 C 378.770 48.500,379.040 48.577,379.106 48.750 C 379.159 48.887,379.307 49.000,379.434 49.000 C 379.562 49.000,379.667 48.887,379.667 48.750 C 379.667 48.612,379.779 48.500,379.917 48.500 C 380.078 48.500,380.167 48.337,380.169 48.042 C 380.172 47.328,380.350 46.833,380.603 46.833 C 380.746 46.833,380.833 46.651,380.833 46.354 C 380.833 46.090,380.946 45.781,381.083 45.667 C 381.221 45.553,381.333 45.322,381.333 45.155 C 381.333 44.987,381.429 44.790,381.545 44.717 C 381.662 44.643,381.848 44.377,381.958 44.125 C 382.069 43.873,382.236 43.667,382.330 43.667 C 382.423 43.667,382.502 43.573,382.505 43.458 C 382.511 43.237,383.840 42.164,384.358 41.964 C 384.528 41.898,384.667 41.775,384.667 41.690 C 384.667 41.605,384.863 41.487,385.103 41.427 C 385.344 41.366,385.649 41.208,385.782 41.075 C 385.915 40.942,386.197 40.833,386.408 40.833 C 386.620 40.833,386.886 40.721,387.000 40.583 C 387.114 40.446,387.466 40.333,387.782 40.333 C 388.098 40.333,388.470 40.221,388.607 40.083 C 388.745 39.946,389.105 39.833,389.408 39.833 C 389.711 39.833,390.053 39.720,390.168 39.582 C 390.283 39.444,390.662 39.285,391.011 39.229 C 391.360 39.173,391.686 39.024,391.734 38.897 C 391.783 38.770,392.005 38.667,392.227 38.667 C 392.449 38.667,392.674 38.554,392.727 38.417 C 392.780 38.279,392.930 38.167,393.060 38.167 C 393.191 38.167,393.341 38.054,393.394 37.917 C 393.446 37.779,393.679 37.667,393.911 37.667 C 394.143 37.667,394.333 37.595,394.333 37.508 C 394.333 37.301,395.134 36.500,395.341 36.500 C 395.428 36.500,395.500 36.387,395.500 36.250 C 395.500 36.112,395.613 36.000,395.750 36.000 C 395.887 36.000,396.000 35.887,396.000 35.750 C 396.000 35.612,396.113 35.500,396.250 35.500 C 396.387 35.500,396.500 35.385,396.500 35.245 C 396.500 35.104,396.613 34.946,396.750 34.894 C 396.887 34.841,397.000 34.660,397.000 34.492 C 397.000 34.324,397.083 34.135,397.184 34.073 C 397.285 34.010,397.473 33.706,397.603 33.396 C 397.732 33.087,397.912 32.833,398.002 32.833 C 398.093 32.833,398.167 32.606,398.167 32.328 C 398.167 32.033,398.271 31.783,398.417 31.727 C 398.584 31.663,398.667 31.399,398.667 30.931 C 398.667 30.546,398.777 30.085,398.911 29.907 C 399.276 29.425,399.280 24.079,398.917 23.940 C 398.751 23.876,398.667 23.615,398.667 23.167 C 398.667 22.719,398.582 22.457,398.417 22.394 C 398.274 22.339,398.167 22.090,398.167 21.816 C 398.167 21.510,398.080 21.333,397.930 21.333 C 397.800 21.333,397.645 21.115,397.586 20.847 C 397.528 20.580,397.372 20.320,397.240 20.269 C 397.108 20.219,397.000 20.062,397.000 19.922 C 397.000 19.782,396.887 19.667,396.750 19.667 C 396.613 19.667,396.500 19.589,396.500 19.494 C 396.500 19.269,394.231 17.000,394.006 17.000 C 393.911 17.000,393.832 16.906,393.830 16.792 C 393.828 16.677,393.453 16.413,392.997 16.205 C 392.540 15.997,392.167 15.716,392.167 15.580 C 392.167 15.419,391.999 15.333,391.684 15.333 C 391.410 15.333,391.161 15.226,391.106 15.083 C 391.050 14.937,390.801 14.833,390.505 14.833 C 390.167 14.833,390.000 14.751,390.000 14.583 C 390.000 14.404,389.817 14.333,389.354 14.333 C 388.983 14.333,388.619 14.227,388.500 14.083 C 388.386 13.946,388.074 13.833,387.806 13.833 C 387.539 13.833,387.026 13.683,386.667 13.500 C 386.214 13.269,385.684 13.167,384.944 13.167 C 384.196 13.167,383.812 13.091,383.667 12.917 C 383.508 12.726,383.075 12.667,381.833 12.667 C 380.591 12.667,380.158 12.726,380.000 12.917 M147.034 15.600 C 146.929 15.787,146.551 15.894,145.777 15.957 C 145.145 16.007,144.589 16.143,144.481 16.273 C 144.376 16.400,143.979 16.500,143.581 16.500 C 143.102 16.500,142.838 16.582,142.773 16.750 C 142.718 16.893,142.469 17.000,142.190 17.000 C 141.910 17.000,141.661 17.107,141.606 17.250 C 141.554 17.387,141.329 17.500,141.106 17.500 C 140.884 17.500,140.663 17.603,140.615 17.729 C 140.566 17.854,140.337 18.005,140.104 18.063 C 139.871 18.122,139.477 18.358,139.228 18.589 C 138.980 18.819,138.607 19.051,138.400 19.102 C 138.193 19.154,137.984 19.302,137.934 19.432 C 137.884 19.561,137.729 19.667,137.589 19.667 C 137.448 19.667,137.333 19.750,137.333 19.851 C 137.333 20.092,135.592 21.833,135.351 21.833 C 135.250 21.833,135.167 22.023,135.167 22.255 C 135.167 22.487,135.054 22.720,134.917 22.773 C 134.779 22.826,134.667 23.011,134.667 23.184 C 134.667 23.358,134.554 23.500,134.417 23.500 C 134.260 23.500,134.167 23.658,134.167 23.922 C 134.167 24.154,134.062 24.384,133.933 24.433 C 133.805 24.483,133.651 24.780,133.592 25.095 C 133.528 25.435,133.387 25.667,133.242 25.667 C 133.063 25.667,133.000 25.882,133.000 26.500 L 133.000 27.333 134.630 27.333 C 135.756 27.333,136.362 27.405,136.592 27.567 C 136.809 27.719,137.527 27.820,138.657 27.858 C 139.851 27.899,140.411 27.981,140.458 28.125 C 140.678 28.785,142.333 28.081,142.333 27.328 C 142.333 27.142,142.446 26.946,142.583 26.894 C 142.721 26.841,142.833 26.693,142.833 26.566 C 142.833 26.438,142.946 26.333,143.083 26.333 C 143.221 26.333,143.333 26.248,143.333 26.144 C 143.333 25.922,144.112 25.167,144.342 25.167 C 144.429 25.167,144.500 25.054,144.500 24.917 C 144.500 24.779,144.612 24.667,144.750 24.667 C 144.887 24.667,145.000 24.554,145.000 24.417 C 145.000 24.279,145.138 24.167,145.308 24.167 C 145.477 24.167,145.751 24.017,145.917 23.833 C 146.083 23.650,146.385 23.500,146.589 23.500 C 146.792 23.500,147.053 23.387,147.167 23.250 C 147.307 23.081,147.684 23.000,148.336 23.000 C 149.037 23.000,149.324 22.932,149.394 22.750 C 149.531 22.391,153.286 22.386,153.760 22.745 C 153.938 22.879,154.442 22.992,154.880 22.995 C 155.431 22.998,155.707 23.077,155.773 23.250 C 155.826 23.387,156.046 23.500,156.262 23.500 C 156.484 23.500,156.732 23.645,156.833 23.833 C 156.931 24.017,157.091 24.167,157.187 24.167 C 157.432 24.167,158.500 25.198,158.500 25.436 C 158.500 25.543,158.612 25.674,158.750 25.727 C 158.896 25.783,159.000 26.033,159.000 26.328 C 159.000 26.649,159.085 26.833,159.232 26.833 C 159.546 26.833,159.667 27.205,159.667 28.170 C 159.667 28.616,159.742 29.027,159.833 29.083 C 159.925 29.140,160.000 29.552,160.000 30.000 C 160.000 30.448,159.925 30.860,159.833 30.917 C 159.742 30.973,159.667 31.241,159.667 31.511 C 159.667 32.471,157.774 33.826,156.417 33.838 C 156.050 33.841,155.604 33.954,155.426 34.089 C 155.189 34.268,154.630 34.333,153.322 34.333 C 151.942 34.333,151.494 34.390,151.333 34.583 C 151.169 34.782,150.686 34.833,149.000 34.833 C 147.367 34.833,146.829 34.888,146.678 35.070 C 146.556 35.216,145.991 35.347,145.199 35.412 C 144.494 35.470,143.718 35.626,143.474 35.759 C 143.231 35.891,142.696 36.000,142.286 36.000 C 141.827 36.000,141.461 36.096,141.333 36.250 C 141.206 36.403,140.841 36.500,140.391 36.500 C 139.892 36.500,139.625 36.580,139.560 36.750 C 139.507 36.889,139.259 37.000,139.000 37.000 C 138.741 37.000,138.493 37.111,138.440 37.250 C 138.387 37.387,138.203 37.500,138.031 37.500 C 137.859 37.500,137.545 37.650,137.333 37.833 C 137.122 38.017,136.818 38.167,136.659 38.167 C 136.499 38.167,136.326 38.279,136.273 38.417 C 136.220 38.554,136.070 38.667,135.940 38.667 C 135.809 38.667,135.659 38.779,135.606 38.917 C 135.554 39.054,135.384 39.167,135.229 39.167 C 134.812 39.167,133.000 41.193,133.000 41.660 C 133.000 41.755,132.887 41.833,132.750 41.833 C 132.598 41.833,132.500 41.988,132.500 42.230 C 132.500 42.448,132.387 42.719,132.250 42.833 C 132.112 42.947,132.000 43.202,132.000 43.400 C 132.000 43.598,131.891 43.915,131.758 44.105 C 131.617 44.306,131.468 45.088,131.401 45.975 C 131.328 46.931,131.201 47.569,131.059 47.686 C 130.764 47.932,130.766 49.236,131.062 49.482 C 131.200 49.597,131.338 50.214,131.410 51.037 C 131.475 51.787,131.635 52.553,131.764 52.738 C 131.894 52.923,132.000 53.250,132.000 53.466 C 132.000 53.681,132.112 53.970,132.250 54.107 C 132.387 54.245,132.500 54.494,132.500 54.661 C 132.500 54.828,132.612 55.008,132.750 55.060 C 132.887 55.113,133.000 55.346,133.000 55.578 C 133.000 55.842,133.094 56.000,133.250 56.000 C 133.387 56.000,133.500 56.077,133.500 56.170 C 133.500 56.390,135.701 58.580,136.060 58.718 C 136.210 58.776,136.333 58.893,136.333 58.978 C 136.333 59.064,136.558 59.212,136.833 59.308 C 137.108 59.404,137.333 59.562,137.333 59.658 C 137.333 59.754,137.478 59.833,137.655 59.833 C 137.832 59.833,138.089 59.946,138.226 60.083 C 138.364 60.221,138.671 60.333,138.910 60.333 C 139.149 60.333,139.387 60.446,139.440 60.583 C 139.502 60.745,139.760 60.833,140.173 60.833 C 140.523 60.833,140.917 60.941,141.048 61.072 C 141.203 61.227,141.858 61.349,142.935 61.423 C 143.858 61.487,144.746 61.639,144.952 61.769 C 145.433 62.070,147.064 62.074,147.313 61.775 C 147.428 61.636,148.051 61.507,148.929 61.439 C 149.714 61.379,150.573 61.218,150.837 61.081 C 151.101 60.945,151.489 60.831,151.700 60.828 C 151.911 60.825,152.229 60.713,152.407 60.578 C 152.585 60.443,152.906 60.333,153.120 60.333 C 153.335 60.333,153.554 60.221,153.606 60.083 C 153.659 59.946,153.836 59.833,154.000 59.833 C 154.164 59.833,154.341 59.721,154.394 59.583 C 154.446 59.446,154.601 59.333,154.737 59.333 C 154.873 59.333,155.239 59.071,155.550 58.750 C 155.862 58.429,156.163 58.167,156.220 58.167 C 156.342 58.167,157.500 57.026,157.500 56.905 C 157.500 56.860,157.725 56.602,158.000 56.333 C 158.275 56.065,158.500 55.772,158.500 55.683 C 158.500 55.259,159.504 54.421,159.794 54.604 C 160.048 54.764,160.089 55.150,160.129 57.810 L 160.174 60.833 165.087 60.833 L 170.000 60.833 170.000 44.870 C 170.000 30.336,169.976 28.873,169.726 28.517 C 169.562 28.282,169.420 27.650,169.370 26.938 C 169.318 26.185,169.205 25.701,169.061 25.617 C 168.929 25.540,168.833 25.204,168.833 24.820 C 168.833 24.384,168.748 24.123,168.583 24.060 C 168.441 24.006,168.333 23.757,168.333 23.482 C 168.333 23.165,168.248 23.000,168.083 23.000 C 167.944 23.000,167.833 22.852,167.833 22.667 C 167.833 22.483,167.727 22.333,167.597 22.333 C 167.466 22.333,167.310 22.108,167.250 21.833 C 167.190 21.558,167.034 21.333,166.903 21.333 C 166.773 21.333,166.667 21.256,166.667 21.161 C 166.667 21.066,166.442 20.769,166.167 20.500 C 165.892 20.231,165.667 19.934,165.667 19.839 C 165.667 19.744,165.552 19.667,165.411 19.667 C 165.271 19.667,165.113 19.554,165.060 19.417 C 165.008 19.279,164.868 19.167,164.750 19.167 C 164.632 19.167,164.492 19.054,164.440 18.917 C 164.387 18.779,164.189 18.667,164.000 18.667 C 163.811 18.667,163.613 18.554,163.560 18.417 C 163.508 18.279,163.370 18.167,163.255 18.167 C 163.139 18.167,162.854 18.017,162.621 17.833 C 162.388 17.650,162.087 17.500,161.952 17.500 C 161.818 17.500,161.614 17.387,161.500 17.250 C 161.386 17.112,161.074 17.000,160.808 17.000 C 160.530 17.000,160.282 16.893,160.227 16.750 C 160.165 16.589,159.907 16.500,159.503 16.500 C 159.157 16.500,158.788 16.396,158.683 16.269 C 158.569 16.132,158.055 16.010,157.422 15.970 C 156.725 15.926,156.243 15.803,156.038 15.618 C 155.576 15.199,147.267 15.183,147.034 15.600 M295.454 15.617 C 295.265 15.807,294.813 15.923,294.090 15.969 C 293.448 16.010,292.931 16.132,292.817 16.269 C 292.712 16.396,292.343 16.500,291.997 16.500 C 291.593 16.500,291.335 16.589,291.273 16.750 C 291.218 16.893,290.969 17.000,290.690 17.000 C 290.410 17.000,290.161 17.107,290.106 17.250 C 290.054 17.387,289.851 17.500,289.657 17.500 C 289.462 17.500,289.112 17.650,288.879 17.833 C 288.646 18.017,288.353 18.167,288.228 18.167 C 288.102 18.167,288.000 18.244,288.000 18.337 C 288.000 18.431,287.831 18.581,287.625 18.670 C 287.064 18.913,286.600 19.224,286.450 19.458 C 286.377 19.573,286.208 19.667,286.075 19.667 C 285.942 19.667,285.833 19.738,285.833 19.826 C 285.833 20.039,284.046 21.833,283.833 21.833 C 283.742 21.833,283.667 21.948,283.667 22.089 C 283.667 22.229,283.554 22.387,283.417 22.440 C 283.279 22.492,283.167 22.711,283.167 22.926 C 283.167 23.141,283.073 23.377,282.958 23.450 C 282.731 23.595,282.000 25.008,282.000 25.302 C 282.000 25.402,281.899 25.543,281.775 25.617 C 281.540 25.756,281.324 26.767,281.453 27.125 C 281.506 27.272,282.003 27.333,283.149 27.333 C 284.316 27.333,284.860 27.402,285.093 27.578 C 285.317 27.747,285.854 27.825,286.833 27.829 C 287.755 27.833,288.417 27.922,288.727 28.084 C 289.371 28.420,290.333 28.416,290.333 28.078 C 290.333 27.938,290.446 27.780,290.583 27.727 C 290.721 27.674,290.833 27.452,290.833 27.232 C 290.833 26.989,290.931 26.833,291.083 26.833 C 291.221 26.833,291.333 26.728,291.333 26.600 C 291.333 26.284,292.936 24.667,293.249 24.667 C 293.387 24.667,293.500 24.572,293.500 24.456 C 293.500 24.245,293.691 24.112,294.596 23.690 C 294.864 23.565,295.282 23.358,295.526 23.231 C 295.769 23.104,296.341 23.000,296.797 23.000 C 297.330 23.000,297.700 22.911,297.833 22.750 C 297.997 22.553,298.465 22.500,300.026 22.500 C 301.636 22.500,302.029 22.547,302.106 22.750 C 302.175 22.928,302.454 23.000,303.081 23.000 C 303.658 23.000,304.030 23.086,304.167 23.250 C 304.281 23.387,304.509 23.500,304.673 23.500 C 304.837 23.500,305.242 23.762,305.572 24.083 C 305.902 24.404,306.246 24.667,306.336 24.667 C 306.426 24.667,306.500 24.779,306.500 24.917 C 306.500 25.054,306.612 25.167,306.750 25.167 C 306.887 25.167,307.000 25.282,307.000 25.422 C 307.000 25.562,307.112 25.720,307.250 25.773 C 307.387 25.826,307.500 26.059,307.500 26.291 C 307.500 26.523,307.631 26.809,307.792 26.926 C 308.690 27.582,308.143 32.667,307.175 32.667 C 307.079 32.667,307.000 32.771,307.000 32.899 C 307.000 33.026,306.803 33.180,306.563 33.240 C 306.323 33.300,306.018 33.459,305.885 33.592 C 305.752 33.725,305.329 33.836,304.946 33.839 C 304.563 33.842,304.104 33.954,303.926 34.089 C 303.691 34.267,303.126 34.335,301.843 34.339 C 300.560 34.342,299.996 34.410,299.760 34.589 C 299.514 34.774,298.920 34.833,297.296 34.833 C 295.604 34.833,295.137 34.883,295.066 35.069 C 295.002 35.234,294.538 35.342,293.529 35.425 C 292.734 35.490,291.935 35.646,291.755 35.772 C 291.574 35.897,291.038 36.000,290.564 36.000 C 289.952 36.000,289.675 36.072,289.606 36.250 C 289.541 36.421,289.273 36.500,288.755 36.500 C 288.195 36.500,288.000 36.565,288.000 36.750 C 288.000 36.917,287.833 37.000,287.495 37.000 C 287.199 37.000,286.950 37.104,286.894 37.250 C 286.841 37.387,286.623 37.500,286.409 37.500 C 286.195 37.500,285.969 37.583,285.906 37.684 C 285.844 37.785,285.539 37.973,285.230 38.103 C 284.920 38.232,284.667 38.412,284.667 38.502 C 284.667 38.593,284.517 38.667,284.333 38.667 C 284.150 38.667,284.000 38.740,284.000 38.830 C 284.000 38.920,283.813 39.041,283.583 39.098 C 283.354 39.156,283.167 39.307,283.167 39.435 C 283.167 39.562,283.054 39.667,282.917 39.667 C 282.779 39.667,282.667 39.766,282.667 39.888 C 282.667 40.009,282.404 40.328,282.083 40.595 C 281.762 40.863,281.500 41.215,281.500 41.379 C 281.500 41.543,281.387 41.720,281.250 41.773 C 281.112 41.826,281.000 42.002,281.000 42.164 C 281.000 42.326,280.887 42.553,280.750 42.667 C 280.612 42.781,280.500 43.047,280.500 43.259 C 280.500 43.470,280.400 43.743,280.278 43.865 C 280.155 43.988,280.004 44.525,279.941 45.059 C 279.878 45.593,279.716 46.141,279.580 46.277 C 279.225 46.633,279.225 50.201,279.580 50.556 C 279.716 50.692,279.877 51.241,279.938 51.777 C 279.999 52.312,280.151 52.898,280.275 53.079 C 280.399 53.260,280.500 53.608,280.500 53.853 C 280.500 54.097,280.612 54.341,280.750 54.394 C 280.887 54.446,281.000 54.682,281.000 54.917 C 281.000 55.152,281.112 55.387,281.250 55.440 C 281.387 55.492,281.500 55.634,281.500 55.754 C 281.500 55.874,281.567 55.997,281.649 56.028 C 281.730 56.058,282.099 56.467,282.468 56.936 C 283.175 57.834,284.759 59.126,285.851 59.696 C 286.209 59.882,286.543 60.102,286.594 60.184 C 286.645 60.266,286.898 60.333,287.156 60.333 C 287.414 60.333,287.719 60.446,287.833 60.583 C 287.947 60.721,288.277 60.833,288.567 60.833 C 288.856 60.833,289.252 60.945,289.447 61.081 C 289.670 61.238,290.424 61.370,291.484 61.440 C 292.577 61.511,293.233 61.629,293.354 61.775 C 293.609 62.082,295.558 62.081,295.813 61.775 C 295.928 61.636,296.552 61.507,297.433 61.439 C 298.264 61.375,299.016 61.225,299.220 61.081 C 299.415 60.945,299.820 60.833,300.120 60.833 C 300.421 60.833,300.667 60.760,300.667 60.670 C 300.667 60.580,300.873 60.456,301.125 60.395 C 301.377 60.334,301.731 60.182,301.912 60.058 C 302.093 59.935,302.374 59.833,302.537 59.833 C 302.700 59.833,302.833 59.721,302.833 59.583 C 302.833 59.446,302.976 59.333,303.150 59.333 C 303.324 59.333,303.849 58.958,304.317 58.500 C 304.785 58.042,305.243 57.667,305.334 57.667 C 305.425 57.667,305.500 57.554,305.500 57.417 C 305.500 57.279,305.612 57.167,305.750 57.167 C 305.887 57.167,306.000 57.052,306.000 56.911 C 306.000 56.771,306.112 56.613,306.250 56.560 C 306.387 56.508,306.500 56.403,306.500 56.327 C 306.500 56.100,307.239 55.015,307.398 55.007 C 307.480 55.003,307.644 54.869,307.764 54.708 C 308.381 53.879,308.580 54.595,308.629 57.810 L 308.674 60.833 313.587 60.833 L 318.500 60.833 318.500 45.738 C 318.500 33.142,318.462 30.605,318.271 30.413 C 318.118 30.261,318.000 29.523,317.918 28.218 C 317.842 26.996,317.708 26.127,317.564 25.922 C 317.437 25.741,317.333 25.355,317.333 25.064 C 317.333 24.748,317.233 24.497,317.083 24.440 C 316.946 24.387,316.833 24.163,316.833 23.942 C 316.833 23.721,316.721 23.447,316.583 23.333 C 316.446 23.219,316.333 22.985,316.333 22.813 C 316.333 22.641,316.272 22.500,316.196 22.500 C 316.040 22.500,315.167 21.215,315.167 20.985 C 315.167 20.902,315.054 20.833,314.917 20.833 C 314.779 20.833,314.667 20.729,314.667 20.601 C 314.667 20.473,314.554 20.326,314.417 20.273 C 314.279 20.220,314.167 20.062,314.167 19.922 C 314.167 19.782,314.052 19.667,313.911 19.667 C 313.771 19.667,313.616 19.561,313.566 19.432 C 313.516 19.302,313.307 19.154,313.100 19.102 C 312.893 19.051,312.520 18.819,312.272 18.589 C 312.023 18.358,311.629 18.122,311.396 18.063 C 311.163 18.005,310.934 17.854,310.885 17.729 C 310.837 17.603,310.616 17.500,310.394 17.500 C 310.171 17.500,309.946 17.387,309.894 17.250 C 309.839 17.107,309.590 17.000,309.310 17.000 C 309.031 17.000,308.782 16.893,308.727 16.750 C 308.662 16.581,308.397 16.500,307.907 16.500 C 307.473 16.500,307.130 16.409,307.050 16.273 C 306.967 16.133,306.478 16.013,305.766 15.957 C 304.953 15.894,304.572 15.789,304.466 15.600 C 304.233 15.184,295.873 15.199,295.454 15.617 M338.288 15.617 C 338.098 15.807,337.646 15.923,336.923 15.969 C 336.281 16.010,335.765 16.132,335.651 16.269 C 335.545 16.396,335.176 16.500,334.831 16.500 C 334.426 16.500,334.168 16.589,334.106 16.750 C 334.051 16.893,333.803 17.000,333.523 17.000 C 333.244 17.000,332.995 17.107,332.940 17.250 C 332.887 17.387,332.662 17.500,332.440 17.500 C 332.217 17.500,331.996 17.603,331.948 17.729 C 331.900 17.854,331.670 18.005,331.437 18.063 C 331.205 18.122,330.811 18.358,330.562 18.589 C 330.313 18.819,329.940 19.051,329.733 19.102 C 329.527 19.154,329.317 19.302,329.267 19.432 C 329.218 19.561,329.062 19.667,328.922 19.667 C 328.782 19.667,328.667 19.764,328.667 19.883 C 328.667 20.002,328.445 20.283,328.174 20.508 C 327.903 20.733,327.678 20.973,327.674 21.042 C 327.670 21.110,327.517 21.317,327.333 21.500 C 327.150 21.683,327.000 21.946,327.000 22.083 C 327.000 22.221,326.887 22.333,326.750 22.333 C 326.612 22.333,326.500 22.474,326.500 22.646 C 326.500 22.818,326.387 23.053,326.250 23.167 C 326.112 23.281,326.000 23.498,326.000 23.650 C 326.000 23.802,325.898 24.074,325.774 24.255 C 325.650 24.435,325.505 24.919,325.452 25.330 C 325.398 25.740,325.275 26.103,325.177 26.135 C 324.883 26.234,324.945 30.856,325.249 31.439 C 325.386 31.702,325.498 32.155,325.499 32.446 C 325.500 32.738,325.612 33.089,325.750 33.226 C 325.887 33.364,326.000 33.661,326.000 33.887 C 326.000 34.113,326.112 34.341,326.250 34.394 C 326.387 34.446,326.500 34.596,326.500 34.727 C 326.500 34.858,326.612 35.008,326.750 35.060 C 326.887 35.113,327.000 35.267,327.000 35.402 C 327.000 35.538,327.375 36.017,327.833 36.469 C 328.292 36.920,328.667 37.374,328.667 37.478 C 328.667 37.582,328.807 37.667,328.980 37.667 C 329.152 37.667,329.386 37.779,329.500 37.917 C 329.614 38.054,329.807 38.167,329.929 38.167 C 330.051 38.167,330.210 38.260,330.283 38.375 C 330.426 38.598,331.839 39.333,332.125 39.333 C 332.220 39.333,332.341 39.446,332.394 39.583 C 332.450 39.729,332.699 39.833,332.995 39.833 C 333.333 39.833,333.500 39.916,333.500 40.083 C 333.500 40.269,333.695 40.333,334.255 40.333 C 334.773 40.333,335.041 40.412,335.106 40.583 C 335.175 40.762,335.455 40.833,336.089 40.833 C 336.610 40.833,337.069 40.926,337.200 41.057 C 337.324 41.181,337.943 41.323,338.577 41.374 C 339.359 41.437,339.793 41.553,339.925 41.733 C 340.070 41.931,340.404 42.000,341.215 42.000 C 341.966 42.000,342.388 42.079,342.560 42.250 C 342.726 42.416,343.142 42.500,343.801 42.500 C 344.479 42.500,344.858 42.579,345.000 42.750 C 345.131 42.908,345.499 43.000,346.000 43.000 C 346.501 43.000,346.869 43.092,347.000 43.250 C 347.114 43.387,347.423 43.500,347.687 43.500 C 347.951 43.500,348.317 43.650,348.500 43.833 C 348.683 44.017,348.977 44.167,349.152 44.167 C 349.688 44.167,351.500 46.080,351.500 46.645 C 351.500 46.910,351.613 47.219,351.750 47.333 C 352.086 47.612,352.089 49.318,351.755 49.760 C 351.621 49.938,351.508 50.226,351.505 50.400 C 351.499 50.800,350.390 52.167,350.072 52.167 C 349.941 52.167,349.833 52.279,349.833 52.417 C 349.833 52.554,349.758 52.667,349.667 52.667 C 349.575 52.667,349.350 52.817,349.167 53.000 C 348.983 53.183,348.691 53.333,348.518 53.333 C 348.344 53.333,348.159 53.446,348.106 53.583 C 348.044 53.747,347.784 53.833,347.356 53.833 C 346.929 53.833,346.669 53.920,346.606 54.083 C 346.525 54.295,345.951 54.333,342.856 54.333 C 339.762 54.333,339.188 54.295,339.106 54.083 C 339.047 53.928,338.793 53.833,338.434 53.833 C 338.117 53.833,337.758 53.739,337.637 53.623 C 337.516 53.507,337.197 53.301,336.930 53.165 C 335.944 52.663,335.833 52.583,335.833 52.377 C 335.833 52.261,335.762 52.167,335.675 52.167 C 335.446 52.167,334.667 51.412,334.667 51.189 C 334.667 51.085,334.593 51.000,334.503 51.000 C 334.413 51.000,334.288 50.794,334.226 50.542 C 334.163 50.290,334.015 50.008,333.898 49.917 C 333.780 49.825,333.661 49.450,333.634 49.083 L 333.583 48.417 331.625 48.370 C 330.503 48.343,329.667 48.389,329.667 48.477 C 329.667 48.786,329.033 48.888,326.500 48.984 L 323.917 49.083 323.866 49.875 C 323.826 50.502,323.869 50.667,324.074 50.667 C 324.269 50.667,324.333 50.848,324.333 51.399 C 324.333 51.874,324.416 52.163,324.568 52.221 C 324.696 52.270,324.851 52.535,324.911 52.808 C 324.971 53.082,325.128 53.347,325.260 53.398 C 325.392 53.448,325.500 53.633,325.500 53.808 C 325.500 53.983,325.612 54.219,325.750 54.333 C 325.887 54.447,326.000 54.644,326.000 54.770 C 326.000 54.897,326.112 55.000,326.250 55.000 C 326.387 55.000,326.500 55.083,326.500 55.184 C 326.500 55.424,328.743 57.667,328.983 57.667 C 329.084 57.667,329.167 57.779,329.167 57.917 C 329.167 58.054,329.307 58.167,329.480 58.167 C 329.652 58.167,329.886 58.279,330.000 58.417 C 330.114 58.554,330.313 58.667,330.442 58.667 C 330.571 58.667,330.719 58.775,330.769 58.906 C 330.820 59.038,331.085 59.195,331.359 59.256 C 331.632 59.316,331.896 59.470,331.946 59.599 C 331.995 59.728,332.245 59.833,332.500 59.833 C 332.759 59.833,333.007 59.944,333.060 60.083 C 333.124 60.249,333.385 60.333,333.833 60.333 C 334.281 60.333,334.543 60.418,334.606 60.583 C 334.675 60.762,334.955 60.833,335.589 60.833 C 336.145 60.833,336.567 60.924,336.720 61.077 C 336.899 61.256,337.608 61.351,339.412 61.436 C 341.110 61.516,341.930 61.621,342.085 61.776 C 342.374 62.065,343.225 62.063,343.800 61.773 C 344.059 61.642,345.126 61.498,346.314 61.434 C 347.699 61.358,348.492 61.241,348.726 61.077 C 348.917 60.943,349.376 60.831,349.745 60.828 C 350.115 60.825,350.562 60.713,350.740 60.578 C 350.918 60.443,351.304 60.333,351.597 60.333 C 351.918 60.333,352.169 60.234,352.227 60.083 C 352.282 59.939,352.532 59.833,352.818 59.833 C 353.091 59.833,353.362 59.755,353.421 59.660 C 353.480 59.564,353.822 59.368,354.181 59.225 C 354.540 59.081,354.833 58.897,354.833 58.815 C 354.833 58.734,354.937 58.667,355.063 58.667 C 355.189 58.667,355.386 58.554,355.500 58.417 C 355.614 58.279,355.840 58.167,356.003 58.167 C 356.165 58.167,356.341 58.054,356.394 57.917 C 356.446 57.779,356.604 57.667,356.745 57.667 C 356.885 57.667,357.000 57.554,357.000 57.417 C 357.000 57.279,357.077 57.167,357.170 57.167 C 357.392 57.167,359.167 55.392,359.167 55.170 C 359.167 55.077,359.279 55.000,359.417 55.000 C 359.554 55.000,359.667 54.885,359.667 54.745 C 359.667 54.604,359.779 54.446,359.917 54.394 C 360.054 54.341,360.167 54.116,360.167 53.894 C 360.167 53.671,360.275 53.448,360.406 53.398 C 360.538 53.347,360.693 53.093,360.750 52.833 C 360.807 52.574,360.962 52.320,361.094 52.269 C 361.248 52.210,361.333 51.935,361.333 51.500 C 361.333 51.052,361.418 50.790,361.583 50.727 C 361.793 50.647,361.833 50.145,361.833 47.637 C 361.833 45.198,361.787 44.597,361.583 44.393 C 361.446 44.255,361.333 43.923,361.333 43.655 C 361.333 43.386,361.183 43.017,361.000 42.833 C 360.817 42.650,360.667 42.350,360.667 42.167 C 360.667 41.981,360.556 41.833,360.417 41.833 C 360.279 41.833,360.167 41.729,360.167 41.601 C 360.167 41.473,360.054 41.326,359.917 41.273 C 359.779 41.220,359.664 41.081,359.661 40.964 C 359.654 40.657,359.021 39.993,358.205 39.436 C 357.817 39.171,357.500 38.890,357.500 38.811 C 357.500 38.731,357.396 38.667,357.268 38.667 C 357.140 38.667,356.992 38.554,356.940 38.417 C 356.887 38.279,356.703 38.167,356.531 38.167 C 356.359 38.167,356.045 38.017,355.833 37.833 C 355.622 37.650,355.310 37.500,355.141 37.500 C 354.972 37.500,354.833 37.387,354.833 37.250 C 354.833 37.078,354.661 37.000,354.282 37.000 C 353.979 37.000,353.585 36.890,353.407 36.755 C 353.229 36.621,352.845 36.508,352.554 36.505 C 352.262 36.502,351.911 36.387,351.774 36.250 C 351.636 36.112,351.252 36.000,350.920 36.000 C 350.588 36.000,350.114 35.896,349.867 35.769 C 349.619 35.643,348.942 35.485,348.363 35.418 C 347.706 35.343,347.276 35.210,347.220 35.066 C 347.156 34.898,346.812 34.833,345.994 34.833 C 345.206 34.833,344.781 34.757,344.607 34.583 C 344.447 34.423,344.035 34.333,343.460 34.333 C 342.930 34.333,342.432 34.233,342.240 34.089 C 342.062 33.954,341.579 33.839,341.167 33.833 C 340.754 33.828,340.278 33.718,340.110 33.590 C 339.941 33.462,339.510 33.308,339.151 33.247 C 338.753 33.180,338.500 33.046,338.500 32.902 C 338.500 32.754,338.322 32.667,338.020 32.667 C 337.757 32.667,337.447 32.554,337.333 32.417 C 337.219 32.279,337.057 32.167,336.973 32.167 C 336.702 32.167,335.833 31.444,335.833 31.219 C 335.833 31.098,335.764 31.000,335.679 31.000 C 335.303 31.000,334.667 29.189,334.672 28.135 C 334.679 26.678,336.014 24.167,336.781 24.167 C 336.903 24.167,337.132 24.017,337.289 23.833 C 337.446 23.650,337.698 23.500,337.850 23.500 C 338.002 23.500,338.219 23.387,338.333 23.250 C 338.447 23.113,338.775 22.998,339.062 22.995 C 339.349 22.992,339.729 22.879,339.907 22.745 C 340.378 22.388,345.789 22.388,346.260 22.745 C 346.438 22.879,346.827 22.992,347.125 22.995 C 347.423 22.998,347.667 23.074,347.667 23.163 C 347.667 23.253,347.849 23.373,348.071 23.428 C 348.293 23.484,348.605 23.673,348.764 23.848 C 348.922 24.023,349.132 24.167,349.230 24.167 C 349.471 24.167,351.000 25.827,351.000 26.089 C 351.000 26.204,351.113 26.341,351.250 26.394 C 351.387 26.446,351.500 26.642,351.500 26.828 C 351.500 27.781,355.199 28.366,356.240 27.578 C 356.484 27.394,357.069 27.333,358.615 27.333 L 360.667 27.333 360.667 26.571 C 360.667 26.116,360.566 25.709,360.417 25.560 C 360.279 25.422,360.167 25.099,360.167 24.842 C 360.167 24.585,360.054 24.281,359.917 24.167 C 359.779 24.053,359.667 23.828,359.667 23.667 C 359.667 23.506,359.554 23.281,359.417 23.167 C 359.279 23.053,359.167 22.854,359.167 22.724 C 359.167 22.595,359.059 22.448,358.927 22.398 C 358.795 22.347,358.639 22.087,358.580 21.819 C 358.522 21.552,358.367 21.333,358.237 21.333 C 358.107 21.333,358.000 21.221,358.000 21.083 C 358.000 20.946,357.887 20.833,357.750 20.833 C 357.613 20.833,357.500 20.729,357.500 20.601 C 357.500 20.473,357.387 20.326,357.250 20.273 C 357.113 20.220,357.000 20.062,357.000 19.922 C 357.000 19.782,356.885 19.667,356.745 19.667 C 356.604 19.667,356.446 19.554,356.394 19.417 C 356.341 19.279,356.193 19.167,356.066 19.167 C 355.938 19.167,355.833 19.088,355.833 18.991 C 355.833 18.895,355.608 18.738,355.333 18.642 C 355.058 18.546,354.833 18.405,354.833 18.328 C 354.833 18.252,354.683 18.142,354.500 18.083 C 354.317 18.025,354.167 17.870,354.167 17.739 C 354.167 17.585,353.990 17.500,353.667 17.500 C 353.333 17.500,353.167 17.417,353.167 17.250 C 353.167 17.077,352.993 17.000,352.604 17.000 C 352.294 17.000,351.947 16.887,351.833 16.750 C 351.719 16.612,351.378 16.500,351.075 16.500 C 350.772 16.500,350.423 16.399,350.300 16.277 C 350.178 16.154,349.597 16.010,349.011 15.957 C 348.289 15.891,347.897 15.775,347.797 15.597 C 347.566 15.183,338.703 15.202,338.288 15.617 M159.958 39.617 C 160.280 40.050,160.245 45.263,159.916 45.894 C 159.779 46.157,159.666 46.644,159.664 46.977 C 159.661 47.830,159.500 48.333,159.231 48.333 C 159.085 48.333,159.000 48.520,159.000 48.839 C 159.000 49.134,158.896 49.384,158.750 49.440 C 158.612 49.492,158.500 49.717,158.500 49.940 C 158.500 50.162,158.387 50.387,158.250 50.440 C 158.112 50.492,158.000 50.599,158.000 50.676 C 158.000 50.892,157.236 51.667,157.023 51.667 C 156.918 51.667,156.833 51.779,156.833 51.917 C 156.833 52.054,156.721 52.167,156.583 52.167 C 156.446 52.167,156.333 52.279,156.333 52.417 C 156.333 52.556,156.185 52.667,156.000 52.667 C 155.817 52.667,155.667 52.729,155.667 52.805 C 155.667 52.881,155.460 53.050,155.208 53.180 C 154.956 53.310,154.651 53.510,154.530 53.625 C 154.409 53.740,154.146 53.836,153.946 53.839 C 153.747 53.842,153.438 53.954,153.260 54.089 C 153.061 54.239,152.561 54.333,151.963 54.333 C 151.251 54.333,150.964 54.401,150.894 54.583 C 150.816 54.786,150.423 54.833,148.810 54.833 C 147.197 54.833,146.805 54.786,146.727 54.583 C 146.657 54.400,146.368 54.333,145.644 54.333 C 144.920 54.333,144.631 54.267,144.560 54.083 C 144.508 53.946,144.316 53.833,144.135 53.833 C 143.732 53.833,141.879 52.406,141.748 51.994 C 141.696 51.831,141.544 51.655,141.410 51.604 C 141.273 51.551,141.167 51.297,141.167 51.023 C 141.167 50.744,141.060 50.495,140.917 50.440 C 140.713 50.362,140.667 49.959,140.667 48.267 C 140.667 46.643,140.721 46.136,140.917 45.940 C 141.054 45.803,141.167 45.573,141.167 45.429 C 141.167 45.285,141.317 45.017,141.500 44.833 C 141.683 44.650,141.833 44.425,141.833 44.333 C 141.833 44.242,141.946 44.167,142.083 44.167 C 142.221 44.167,142.333 44.088,142.333 43.992 C 142.333 43.695,143.229 43.011,143.625 43.005 C 143.845 43.002,144.000 42.897,144.000 42.750 C 144.000 42.585,144.165 42.500,144.482 42.500 C 144.757 42.500,145.006 42.393,145.060 42.250 C 145.124 42.083,145.387 42.000,145.851 42.000 C 146.300 42.000,146.617 41.904,146.744 41.730 C 146.884 41.539,147.304 41.435,148.179 41.375 C 148.860 41.328,149.619 41.187,149.867 41.062 C 150.138 40.924,150.855 40.833,151.670 40.833 C 152.651 40.833,153.093 40.765,153.274 40.583 C 153.453 40.404,153.891 40.333,154.825 40.333 C 155.778 40.333,156.181 40.266,156.333 40.083 C 156.460 39.931,156.825 39.833,157.270 39.833 C 157.672 39.833,158.000 39.756,158.000 39.661 C 158.000 39.140,159.576 39.104,159.958 39.617 M307.967 39.367 C 308.351 39.751,308.232 47.490,307.833 48.000 C 307.654 48.229,307.506 48.623,307.504 48.875 C 307.502 49.127,307.426 49.333,307.336 49.333 C 307.245 49.333,307.068 49.581,306.941 49.884 C 306.814 50.187,306.513 50.648,306.272 50.909 C 306.031 51.169,305.833 51.446,305.833 51.524 C 305.833 51.603,305.721 51.667,305.583 51.667 C 305.446 51.667,305.333 51.779,305.333 51.917 C 305.333 52.054,305.229 52.167,305.101 52.167 C 304.973 52.167,304.826 52.279,304.773 52.417 C 304.720 52.554,304.487 52.667,304.255 52.667 C 304.023 52.667,303.833 52.760,303.832 52.875 C 303.830 53.157,302.615 53.833,302.110 53.833 C 301.886 53.833,301.659 53.946,301.606 54.083 C 301.536 54.267,301.247 54.333,300.526 54.333 C 299.854 54.333,299.475 54.413,299.333 54.583 C 299.171 54.778,298.714 54.833,297.250 54.833 C 295.786 54.833,295.329 54.778,295.167 54.583 C 295.029 54.417,294.656 54.333,294.058 54.333 C 293.410 54.333,293.129 54.263,293.060 54.083 C 293.006 53.941,292.757 53.833,292.482 53.833 C 292.217 53.833,292.000 53.757,292.000 53.663 C 292.000 53.569,291.794 53.405,291.542 53.298 C 291.014 53.074,289.881 51.904,289.727 51.424 C 289.670 51.245,289.520 50.996,289.395 50.871 C 289.066 50.542,289.065 45.908,289.393 45.782 C 289.517 45.734,289.666 45.464,289.722 45.181 C 289.783 44.876,289.929 44.667,290.079 44.667 C 290.219 44.667,290.333 44.554,290.333 44.417 C 290.333 44.279,290.446 44.167,290.583 44.167 C 290.721 44.167,290.833 44.075,290.833 43.964 C 290.833 43.715,291.641 43.000,291.922 43.000 C 292.034 43.000,292.219 42.887,292.333 42.750 C 292.447 42.612,292.749 42.500,293.003 42.500 C 293.259 42.500,293.507 42.389,293.560 42.250 C 293.624 42.083,293.887 42.000,294.351 42.000 C 294.813 42.000,295.116 41.905,295.253 41.718 C 295.403 41.513,295.774 41.418,296.605 41.372 C 297.235 41.337,297.986 41.201,298.275 41.071 C 298.592 40.928,299.340 40.833,300.162 40.833 C 301.150 40.833,301.592 40.765,301.774 40.583 C 301.948 40.409,302.376 40.333,303.190 40.333 C 304.005 40.333,304.433 40.258,304.607 40.083 C 304.762 39.929,305.171 39.833,305.679 39.833 C 306.132 39.833,306.500 39.756,306.500 39.661 C 306.500 39.274,307.644 39.044,307.967 39.367 M371.940 53.583 C 371.887 53.721,371.689 53.833,371.500 53.833 C 371.310 53.833,370.935 54.058,370.667 54.333 C 370.398 54.608,370.100 54.833,370.006 54.833 C 369.911 54.833,369.833 54.946,369.833 55.083 C 369.833 55.221,369.765 55.333,369.682 55.333 C 369.598 55.333,369.373 55.657,369.182 56.053 C 368.732 56.982,368.655 60.333,369.083 60.333 C 369.222 60.333,369.333 60.481,369.333 60.667 C 369.333 60.850,369.410 61.000,369.504 61.000 C 369.598 61.000,369.747 61.188,369.834 61.419 C 369.922 61.649,370.182 61.924,370.413 62.029 C 370.644 62.134,370.833 62.283,370.833 62.360 C 370.833 62.437,370.983 62.500,371.167 62.500 C 371.352 62.500,371.500 62.611,371.500 62.750 C 371.500 62.958,371.831 63.000,373.480 63.000 C 375.036 63.000,375.504 62.947,375.667 62.750 C 375.781 62.612,376.015 62.500,376.187 62.500 C 376.359 62.500,376.500 62.387,376.500 62.250 C 376.500 62.112,376.575 62.000,376.667 62.000 C 376.873 62.000,377.500 61.387,377.500 61.184 C 377.500 61.103,377.605 60.995,377.734 60.946 C 377.863 60.896,378.019 60.626,378.081 60.345 C 378.143 60.063,378.300 59.833,378.430 59.833 C 378.991 59.833,378.738 57.138,378.083 56.143 C 377.762 55.656,377.500 55.162,377.500 55.045 C 377.500 54.929,377.387 54.833,377.250 54.833 C 377.113 54.833,377.000 54.721,377.000 54.583 C 377.000 54.446,376.897 54.333,376.770 54.333 C 376.644 54.333,376.454 54.229,376.348 54.101 C 376.242 53.973,375.895 53.819,375.577 53.760 C 375.260 53.700,375.000 53.580,375.000 53.492 C 375.000 53.207,372.051 53.295,371.940 53.583 " stroke="none" fill="#000000" fill-rule="evenodd"></path><path id="path1" d="" stroke="none" fill="#080404" fill-rule="evenodd"></path><path id="path2" d="" stroke="none" fill="#080404" fill-rule="evenodd"></path><path id="path3" d="" stroke="none" fill="#080404" fill-rule="evenodd"></path><path id="path4" d="" stroke="none" fill="#080404" fill-rule="evenodd"></path></g></svg>